<svg xmlns="http://www.w3.org/2000/svg" xmlns:xlink="http://www.w3.org/1999/xlink" width="1052.774" height="964.784" viewBox="0 0 1052.774 964.784">
  <defs>
    <clipPath id="clip-path">
      <rect id="Rectangle_4574" data-name="Rectangle 4574" width="821.774" height="857.568" fill="none"/>
    </clipPath>
    <clipPath id="clip-path-3">
      <rect id="Rectangle_4552" data-name="Rectangle 4552" width="85.971" height="14.738" fill="none"/>
    </clipPath>
    <clipPath id="clip-path-5">
      <rect id="Rectangle_4558" data-name="Rectangle 4558" width="55.615" height="80.36" fill="none"/>
    </clipPath>
    <clipPath id="clip-path-6">
      <rect id="Rectangle_4559" data-name="Rectangle 4559" width="39.245" height="16.601" fill="none"/>
    </clipPath>
    <clipPath id="clip-path-7">
      <rect id="Rectangle_4562" data-name="Rectangle 4562" width="203.045" height="164.326" fill="none"/>
    </clipPath>
    <clipPath id="clip-path-8">
      <rect id="Rectangle_4563" data-name="Rectangle 4563" width="150.402" height="132.742" fill="none"/>
    </clipPath>
    <clipPath id="clip-path-9">
      <rect id="Rectangle_4566" data-name="Rectangle 4566" width="11.797" height="10.057" fill="none"/>
    </clipPath>
    <clipPath id="clip-path-11">
      <rect id="Rectangle_4568" data-name="Rectangle 4568" width="11.795" height="10.059" fill="none"/>
    </clipPath>
    <clipPath id="clip-path-13">
      <rect id="Rectangle_4570" data-name="Rectangle 4570" width="186.444" height="15.246" fill="none"/>
    </clipPath>
    <clipPath id="clip-path-14">
      <rect id="Rectangle_4572" data-name="Rectangle 4572" width="7.261" height="36.987" fill="none"/>
    </clipPath>
  </defs>
  <g id="Group_604" data-name="Group 604" transform="translate(-965.226 -247)">
    <circle id="Ellipse_349" data-name="Ellipse 349" cx="418.5" cy="418.5" r="418.5" transform="translate(1181 247)" fill="#a0a0a0"/>
    <g id="Group_603" data-name="Group 603" transform="translate(965.226 354.216)">
      <g id="Group_602" data-name="Group 602" clip-path="url(#clip-path)">
        <g id="Group_601" data-name="Group 601">
          <g id="Group_600" data-name="Group 600" clip-path="url(#clip-path)">
            <path id="Path_645" data-name="Path 645" d="M338.669,212.537a14.441,14.441,0,0,1,.32-4.694,18.91,18.91,0,0,1,6.709-10.817,19.12,19.12,0,0,1,8.07-3.824,19.434,19.434,0,0,1,10.233.624,19.447,19.447,0,0,1,9.184,6.615,19.365,19.365,0,0,1,.378,23.058,19.485,19.485,0,0,1-8.966,6.911,19.44,19.44,0,0,1-10.207.958,19.117,19.117,0,0,1-8.192-3.56,18.908,18.908,0,0,1-7.055-10.593,14.442,14.442,0,0,1-.474-4.68,45.207,45.207,0,0,0,.864,4.574,18.942,18.942,0,0,0,7.1,10.1,18.578,18.578,0,0,0,17.62,2.3,18.585,18.585,0,0,0,8.476-6.605,18.438,18.438,0,0,0-.358-21.852,18.58,18.58,0,0,0-8.684-6.323,18.58,18.58,0,0,0-17.536,2.869,18.942,18.942,0,0,0-6.767,10.331,45.3,45.3,0,0,0-.716,4.6" transform="translate(338.909 192.972)" fill="#e0e0e0"/>
            <path id="Path_646" data-name="Path 646" d="M332.256,218.984a4.234,4.234,0,0,1-.64.194c-.478.128-1.123.3-1.959.52l-7.757,1.981.126-.164c.1,4.532.23,10.493.388,17.706l-.21-.254,10.481,2.153.18.036.052.18a43.345,43.345,0,0,0,4.592,10.5l.108.176-.108.178c-1.725,2.855-3.594,5.947-5.536,9.162l-.058-.458,12.75,12.288-.508-.048,8.948-5.875.218-.142.228.128a43.179,43.179,0,0,0,10.635,4.186l.264.066.064.264c.79,3.221,1.661,6.773,2.547,10.391l-.458-.354,17.706-.308-.466.384c.68-3.261,1.427-6.845,2.183-10.475l.062-.292.288-.082a43.093,43.093,0,0,0,10.467-4.55l.26-.158.262.16,9.15,5.555-.632.082,12.312-12.73-.06.642-5.859-8.958-.174-.264.154-.274a43.007,43.007,0,0,0,4.194-10.6l0-.01.08-.308.3-.074L427.228,237l-.4.514q-.144-8.968-.284-17.706l.41.5-10.473-2.2-.3-.064-.084-.3a42.954,42.954,0,0,0-4.534-10.471l-.158-.262.158-.26q2.824-4.64,5.569-9.142l.078.614L404.5,185.9l.6.058q-4.565,2.974-8.968,5.845l-.236.156-.246-.138a43.092,43.092,0,0,0-10.617-4.22l-.266-.066-.064-.264c-.862-3.566-1.7-7.023-2.517-10.4l.428.332-17.708.252.384-.316-2.219,10.467-.046.222-.218.062a43.181,43.181,0,0,0-10.515,4.528l-.18.106-.176-.108c-3.317-2.031-6.3-3.862-9.128-5.589l.382-.05c-4.792,4.91-8.876,9.092-12.372,12.672l.028-.288c2.319,3.594,4.22,6.541,5.8,9l.056.086-.05.086a44.926,44.926,0,0,0-3.532,7.928c-.276.882-.488,1.559-.642,2.049-.138.472-.22.678-.22.678s.036-.25.136-.7.282-1.161.562-2.081a42.142,42.142,0,0,1,3.4-8.036l.008.172c-1.615-2.433-3.552-5.358-5.913-8.924l-.1-.154.13-.136c3.464-3.61,7.511-7.826,12.264-12.776l.17-.176.21.126,9.164,5.532h-.354A43.74,43.74,0,0,1,362.6,187.17l-.264.282c.69-3.333,1.407-6.793,2.169-10.477l.064-.312.32-.006,17.706-.322.346-.006.082.338c.828,3.372,1.677,6.827,2.551,10.389l-.33-.33A43.893,43.893,0,0,1,396.1,191l-.482.018,8.952-5.869.322-.208.276.266,12.736,12.3.284.276-.206.34q-2.74,4.511-5.554,9.15l0-.522a43.957,43.957,0,0,1,4.654,10.711l-.388-.36,10.475,2.189.4.084.008.414q.144,8.731.292,17.706l.008.414-.4.1L417.08,240.55l.382-.38,0,.01a43.955,43.955,0,0,1-4.3,10.855l-.018-.538,5.855,8.96.226.346-.288.3c-4.24,4.376-8.422,8.692-12.322,12.72l-.284.292-.348-.212c-3.155-1.921-6.281-3.822-9.144-5.566l.522,0a44.082,44.082,0,0,1-10.717,4.638l.35-.374c-.764,3.628-1.517,7.209-2.2,10.471l-.08.378-.388.006c-6.147.094-12.145.184-17.706.27l-.372,0-.088-.36c-.876-3.62-1.737-7.175-2.517-10.4l.328.328a43.88,43.88,0,0,1-10.839-4.308l.446-.014c-3.135,2.039-6.195,4.03-8.972,5.839l-.276.18-.234-.228q-6.684-6.5-12.7-12.346l-.214-.206.154-.254c1.961-3.2,3.846-6.285,5.587-9.132l0,.354a43.75,43.75,0,0,1-4.594-10.683l.23.216c-3.77-.8-7.293-1.557-10.463-2.235l-.208-.044,0-.21c-.076-7.213-.142-13.176-.19-17.708l0-.134.13-.03c3.357-.78,5.943-1.381,7.733-1.795.854-.192,1.515-.338,2-.446a5.41,5.41,0,0,1,.7-.132" transform="translate(321.981 176.488)" fill="#e0e0e0"/>
            <path id="Path_647" data-name="Path 647" d="M73.962,196.859a48.624,48.624,0,0,1,4.75-12.007l-6.551-10.023L85.938,160.6l10.229,6.219a48.59,48.59,0,0,1,11.847-5.138l2.455-11.715,19.8-.32,2.833,11.625a48.442,48.442,0,0,1,12.007,4.752l10.023-6.551,14.23,13.776-6.219,10.229a48.447,48.447,0,0,1,5.138,11.847L180,197.776l.324,19.8L168.7,220.414a48.628,48.628,0,0,1-4.752,12.007l6.551,10.021L156.72,256.674l-10.231-6.221a48.591,48.591,0,0,1-11.845,5.14L132.188,267.3l-19.8.324L109.554,256a48.566,48.566,0,0,1-12.009-4.752L87.522,257.8l-14.23-13.776L79.513,233.8a48.4,48.4,0,0,1-5.138-11.845L62.659,219.5l-.322-19.8Zm26.108,11.223a21.248,21.248,0,1,0,20.9-21.592,21.248,21.248,0,0,0-20.9,21.592" transform="translate(62.393 149.779)" fill="#e0e0e0" fill-rule="evenodd"/>
            <path id="Path_648" data-name="Path 648" d="M297.885,154.486a14.009,14.009,0,0,1,1.373-3.468l-1.891-2.893,3.976-4.108,2.953,1.795a14.055,14.055,0,0,1,3.42-1.483l.708-3.382,5.719-.094.818,3.356a13.991,13.991,0,0,1,3.466,1.373l2.893-1.891,4.11,3.978-1.8,2.953a13.949,13.949,0,0,1,1.485,3.42l3.382.708.092,5.717-3.355.818a14.01,14.01,0,0,1-1.373,3.468l1.893,2.893-3.978,4.108-2.953-1.795a14.056,14.056,0,0,1-3.42,1.483l-.708,3.382-5.719.094-.818-3.358a13.988,13.988,0,0,1-3.466-1.371L301.8,172.08l-4.11-3.978,1.8-2.953a13.984,13.984,0,0,1-1.485-3.42l-3.382-.708-.092-5.717Zm7.537,3.239a6.135,6.135,0,1,0,6.035-6.233,6.133,6.133,0,0,0-6.035,6.233" transform="translate(294.796 140.981)" fill="#e0e0e0" fill-rule="evenodd"/>
            <path id="Path_649" data-name="Path 649" d="M4.645,186.689a19.269,19.269,0,0,1,1.9-4.8l-2.619-4,5.5-5.689,4.088,2.485a19.448,19.448,0,0,1,4.734-2.053l.98-4.682,7.916-.128,1.131,4.646a19.4,19.4,0,0,1,4.8,1.9l4.006-2.617,5.687,5.5-2.487,4.088a19.367,19.367,0,0,1,2.055,4.734l4.68.982.13,7.914L42.5,196.1a19.572,19.572,0,0,1-1.9,4.8l2.615,4.006-5.5,5.687-4.09-2.485a19.371,19.371,0,0,1-4.734,2.053l-.98,4.682L20,214.971l-1.133-4.646a19.325,19.325,0,0,1-4.8-1.9l-4.006,2.617-5.687-5.5,2.487-4.088a19.3,19.3,0,0,1-2.053-4.734l-4.684-.98L0,187.821Zm10.433,4.486a8.491,8.491,0,1,0,8.352-8.628,8.491,8.491,0,0,0-8.352,8.628" transform="translate(0.001 167.971)" fill="#ebebeb" fill-rule="evenodd"/>
            <path id="Path_650" data-name="Path 650" d="M367.4,135.146a44.434,44.434,0,0,1,4.346-10.983L365.754,115l12.6-13.016,9.356,5.689a44.335,44.335,0,0,1,10.835-4.7l2.247-10.715,18.112-.294,2.591,10.633a44.374,44.374,0,0,1,10.983,4.346l9.168-5.991,13.016,12.6-5.689,9.358a44.375,44.375,0,0,1,4.7,10.835l10.717,2.245.292,18.112-10.633,2.593a44.479,44.479,0,0,1-4.346,10.983l5.993,9.166-12.6,13.018-9.358-5.689a44.418,44.418,0,0,1-10.835,4.7l-2.243,10.713-18.116.3-2.591-10.635A44.373,44.373,0,0,1,388.97,184.9l-9.166,5.993-13.018-12.6,5.689-9.358a44.474,44.474,0,0,1-4.7-10.833l-10.713-2.245-.3-18.114Zm23.881,10.267A19.434,19.434,0,1,0,410.4,125.664a19.434,19.434,0,0,0-19.115,19.749" transform="translate(357.088 92.044)" fill="#ebebeb" fill-rule="evenodd"/>
            <path id="Path_651" data-name="Path 651" d="M21.5,284.012a40.162,40.162,0,0,1,3.934-9.942l-5.424-8.3,11.407-11.783,8.47,5.15a40.14,40.14,0,0,1,9.808-4.256l2.031-9.7,16.4-.266,2.347,9.624a40.166,40.166,0,0,1,9.942,3.936l8.3-5.424,11.783,11.407-5.15,8.47a40.14,40.14,0,0,1,4.256,9.808l9.7,2.033.268,16.4-9.626,2.347A40.239,40.239,0,0,1,96,313.459l5.422,8.3L90.02,333.542l-8.47-5.15a40.209,40.209,0,0,1-9.808,4.254l-2.033,9.7-16.4.268-2.347-9.626a40.237,40.237,0,0,1-9.942-3.934l-8.3,5.422L20.941,323.069l5.15-8.472a40.139,40.139,0,0,1-4.256-9.808l-9.7-2.031-.268-16.4Zm21.616,9.294a17.594,17.594,0,1,0,17.3-17.878,17.593,17.593,0,0,0-17.3,17.878" transform="translate(11.88 245.139)" fill="#f5f5f5" fill-rule="evenodd"/>
            <path id="Path_652" data-name="Path 652" d="M190.723,103.422a17.482,17.482,0,0,1,1.713-4.33l-2.363-3.614,4.97-5.132,3.688,2.243A17.455,17.455,0,0,1,203,90.736l.884-4.224,7.141-.116,1.02,4.192a17.41,17.41,0,0,1,4.33,1.715l3.614-2.363,5.132,4.968L222.879,98.6a17.664,17.664,0,0,1,1.855,4.272l4.222.884.116,7.139-4.192,1.022a17.517,17.517,0,0,1-1.715,4.33l2.363,3.614-4.968,5.13-3.688-2.243a17.412,17.412,0,0,1-4.27,1.853l-.886,4.224-7.141.116-1.018-4.192a17.373,17.373,0,0,1-4.33-1.713l-3.614,2.363-5.132-4.968,2.243-3.688a17.5,17.5,0,0,1-1.851-4.272l-4.226-.884-.116-7.141Zm9.414,4.046a7.661,7.661,0,1,0,7.533-7.786,7.658,7.658,0,0,0-7.533,7.786" transform="translate(186.699 86.474)" fill="#f5f5f5" fill-rule="evenodd"/>
            <path id="Path_653" data-name="Path 653" d="M21.159,122.842a23.433,23.433,0,0,1,3.586-.088c1.157-.008,2.569.016,4.208.136s3.508.168,5.561.426a127.354,127.354,0,0,1,14.34,2.275,142.425,142.425,0,0,1,17.082,4.954,142.307,142.307,0,0,1,16.255,7.229,127.566,127.566,0,0,1,12.428,7.509c1.735,1.127,3.205,2.285,4.526,3.259s2.423,1.857,3.3,2.607a23.286,23.286,0,0,1,2.683,2.381,23.712,23.712,0,0,1-2.933-2.061c-.914-.7-2.043-1.543-3.4-2.457s-2.839-2.037-4.59-3.117a143.313,143.313,0,0,0-12.464-7.269,152.9,152.9,0,0,0-16.169-7.1,153.616,153.616,0,0,0-16.934-5,143.142,143.142,0,0,0-14.214-2.479c-2.035-.3-3.892-.416-5.518-.578s-3.031-.256-4.18-.312a23.774,23.774,0,0,1-3.572-.316" transform="translate(21.178 122.862)" fill="#ebebeb"/>
            <path id="Path_654" data-name="Path 654" d="M2.629,254.849a7.14,7.14,0,0,1,1.074-.9l3.207-2.435c1.391-1.064,3.115-2.329,5.2-3.688s4.378-3.017,7.081-4.6c2.665-1.641,5.6-3.418,8.854-5.134,3.2-1.831,6.751-3.518,10.465-5.346a218.694,218.694,0,0,1,25.051-9.836,218.42,218.42,0,0,1,26.152-6.395c4.09-.644,7.968-1.313,11.633-1.659,3.652-.472,7.073-.708,10.2-.9,3.117-.268,5.953-.254,8.436-.324,2.483-.088,4.622-.048,6.371.02l4.024.144a7.077,7.077,0,0,1,1.4.12,7.109,7.109,0,0,1-1.4.09c-1.024.012-2.359.03-4.02.052-1.745-.006-3.88.012-6.355.156-2.473.126-5.3.162-8.4.476-3.109.24-6.511.518-10.143,1.026-3.648.38-7.5,1.078-11.567,1.747A229.035,229.035,0,0,0,63.875,223.9a229.517,229.517,0,0,0-24.961,9.714c-3.708,1.8-7.259,3.448-10.461,5.236-3.261,1.677-6.2,3.409-8.882,5-2.717,1.531-5.046,3.127-7.141,4.45s-3.86,2.523-5.282,3.534c-1.373.938-2.473,1.695-3.317,2.273a7.249,7.249,0,0,1-1.2.736" transform="translate(2.631 213.77)" fill="#ebebeb"/>
            <path id="Path_655" data-name="Path 655" d="M74.5,335.33a4.247,4.247,0,0,1,.14-1.083c.16-.816.36-1.829.6-3.065.262-1.331.61-2.953,1.094-4.818s.964-4.01,1.667-6.333c1.293-4.678,3.091-10.177,5.334-16.189,2.3-5.993,5.076-12.49,8.378-19.125,3.34-6.619,6.881-12.734,10.307-18.164,3.474-5.4,6.8-10.131,9.776-13.966,1.441-1.953,2.863-3.626,4.074-5.124s2.3-2.755,3.205-3.764c.844-.932,1.535-1.7,2.093-2.315a4.528,4.528,0,0,1,.782-.762,4.2,4.2,0,0,1-.624.9l-1.941,2.441c-.86,1.044-1.9,2.331-3.059,3.866s-2.543,3.229-3.94,5.2c-2.889,3.878-6.141,8.634-9.554,14.034-3.366,5.434-6.863,11.533-10.189,18.118-3.283,6.6-6.073,13.054-8.412,19-2.283,5.969-4.146,11.419-5.522,16.055-.746,2.3-1.285,4.422-1.811,6.271s-.942,3.452-1.265,4.764c-.32,1.219-.582,2.215-.792,3.017a4.25,4.25,0,0,1-.346,1.039" transform="translate(74.558 240.837)" fill="#ebebeb"/>
            <path id="Path_656" data-name="Path 656" d="M236.776,13.473A7.591,7.591,0,0,1,236,14.692l-2.4,3.368c-1.06,1.447-2.341,3.227-3.746,5.352s-3.105,4.474-4.784,7.205c-1.729,2.7-3.612,5.659-5.488,8.926-1.965,3.215-3.856,6.769-5.895,10.481-3.936,7.5-7.966,15.9-11.675,24.941-3.658,9.068-6.637,17.9-9.052,26.018-1.133,4.08-2.259,7.946-3.1,11.619-.936,3.65-1.655,7.085-2.3,10.225-.7,3.127-1.143,5.993-1.6,8.5s-.8,4.672-1.052,6.447c-.264,1.691-.474,3.047-.636,4.082a7.655,7.655,0,0,1-.292,1.417,7.444,7.444,0,0,1,.084-1.443c.112-1.042.26-2.407.442-4.11.19-1.787.458-3.97.88-6.487s.8-5.4,1.457-8.546c.6-3.157,1.279-6.613,2.183-10.283.8-3.7,1.9-7.583,3.015-11.685,2.373-8.164,5.338-17.04,9.008-26.144,3.726-9.078,7.8-17.5,11.8-25,2.069-3.714,4-7.263,6-10.471,1.915-3.259,3.84-6.207,5.615-8.886,1.723-2.713,3.458-5.05,4.922-7.139s2.787-3.846,3.9-5.256q1.588-2.023,2.553-3.255a7.473,7.473,0,0,1,.946-1.09" transform="translate(184.129 13.485)" fill="#ebebeb"/>
            <path id="Path_657" data-name="Path 657" d="M347.193,117.375a5.451,5.451,0,0,1-1.2.23l-3.464.456-2.5.3c-.91.138-1.891.354-2.947.546-2.107.428-4.536.768-7.139,1.527L325.83,121.5c-1.425.38-2.863.928-4.378,1.411-3.049.91-6.167,2.271-9.48,3.61a115.27,115.27,0,0,0-37.791,26.552c-2.383,2.663-4.718,5.134-6.609,7.7-.966,1.261-1.971,2.429-2.811,3.642s-1.631,2.385-2.4,3.5c-1.595,2.191-2.737,4.36-3.854,6.2-.54.928-1.076,1.777-1.513,2.587q-.615,1.219-1.134,2.251l-1.6,3.1a5.5,5.5,0,0,1-.624,1.054,5.366,5.366,0,0,1,.432-1.143c.374-.832.846-1.891,1.431-3.2q.486-1.053,1.059-2.3c.412-.828.926-1.695,1.445-2.643,1.074-1.875,2.179-4.086,3.748-6.317l2.357-3.568c.83-1.233,1.825-2.423,2.783-3.706,1.879-2.6,4.208-5.116,6.591-7.822a112.423,112.423,0,0,1,38.111-26.776c3.352-1.327,6.5-2.665,9.59-3.55,1.533-.466,2.987-1,4.43-1.363l4.156-1.008c2.629-.718,5.084-1.008,7.213-1.385,1.069-.166,2.057-.354,2.975-.462l2.525-.216,3.492-.262a5.341,5.341,0,0,1,1.221-.02" transform="translate(253.859 117.459)" fill="#ebebeb"/>
            <path id="Path_658" data-name="Path 658" d="M476.585,187.828a2.165,2.165,0,0,1-.526-.142c-.4-.134-.89-.3-1.507-.512-1.385-.5-3.307-1.189-5.745-2.065q-1.876-.687-4.14-1.515c-1.521-.526-3.2-1.028-4.992-1.607-3.592-1.117-7.635-2.543-12.229-3.7l-7.169-1.957c-2.5-.67-5.134-1.193-7.842-1.831-5.408-1.341-11.277-2.317-17.43-3.448a332.206,332.206,0,0,0-40.492-3.974,332.432,332.432,0,0,0-40.67,1.487c-6.213.752-12.13,1.367-17.608,2.373-2.745.472-5.412.83-7.942,1.347l-7.277,1.515c-4.656.876-8.78,2.055-12.432,2.947-1.825.468-3.528.866-5.082,1.3l-4.224,1.259c-2.483.724-4.444,1.295-5.861,1.709l-1.533.418a2.072,2.072,0,0,1-.532.11,2.149,2.149,0,0,1,.5-.21l1.5-.518,5.807-1.9,4.2-1.349c1.549-.46,3.249-.886,5.068-1.385,3.648-.946,7.77-2.177,12.428-3.1l7.279-1.583c2.535-.538,5.206-.918,7.952-1.411,5.488-1.046,11.421-1.7,17.654-2.477a322.471,322.471,0,0,1,40.8-1.571,322.4,322.4,0,0,1,40.618,4.068c6.173,1.16,12.051,2.171,17.466,3.552,2.713.658,5.354,1.2,7.854,1.895l7.167,2.027c4.592,1.209,8.63,2.687,12.214,3.858,1.785.608,3.458,1.139,4.972,1.693q2.248.873,4.118,1.6c2.407.954,4.306,1.707,5.679,2.249.6.248,1.082.45,1.467.61a2.254,2.254,0,0,1,.488.24" transform="translate(271.597 166.077)" fill="#ebebeb"/>
            <path id="Path_659" data-name="Path 659" d="M183.619,68.307l-1.879,1.865L137.088,25.2l1.879-1.865a27.913,27.913,0,0,1,39.474.14l5.318,5.356a27.913,27.913,0,0,1-.14,39.474" transform="translate(137.212 15.245)" fill="#455a64"/>
            <path id="Path_660" data-name="Path 660" d="M181.776,70.267l-.034-.036-44.688-45,.034-.036,1.879-1.863a27.78,27.78,0,0,1,19.7-8.122h.1a27.774,27.774,0,0,1,19.743,8.26l5.318,5.356a27.962,27.962,0,0,1-.14,39.544Zm-44.582-45.04,44.582,44.9,1.843-1.829a27.866,27.866,0,0,0,.14-39.4l-5.318-5.356a27.684,27.684,0,0,0-19.673-8.23h-.1A27.674,27.674,0,0,0,139.037,23.4Z" transform="translate(137.178 15.22)" fill="#263238"/>
            <path id="Path_661" data-name="Path 661" d="M74.073,87.271l1.945-1.795L119,132.047l-1.945,1.795a27.911,27.911,0,0,1-39.442-1.583l-5.118-5.546a27.909,27.909,0,0,1,1.581-39.442" transform="translate(65.149 85.553)" fill="#455a64"/>
            <path id="Path_662" data-name="Path 662" d="M98.175,141.327c-.382,0-.764-.006-1.149-.022A27.778,27.778,0,0,1,77.6,132.329l-5.118-5.547a27.963,27.963,0,0,1,1.585-39.514l1.983-1.829.034.036,43.011,46.609-.036.034-1.945,1.795a27.767,27.767,0,0,1-18.937,7.413M74.133,87.343a27.859,27.859,0,0,0-1.577,39.372l5.118,5.546a27.67,27.67,0,0,0,19.357,8.944c.382.014.764.022,1.145.022a27.657,27.657,0,0,0,18.869-7.387l1.909-1.761-42.911-46.5Z" transform="translate(65.124 85.517)" fill="#263238"/>
            <rect id="Rectangle_4548" data-name="Rectangle 4548" width="5.01" height="41.39" transform="translate(111.623 119.001) rotate(-51.111)" fill="#455a64"/>
            <path id="Path_663" data-name="Path 663" d="M66.71,54.555a10.2,10.2,0,1,1-14.346,1.537A10.2,10.2,0,0,1,66.71,54.555" transform="translate(50.146 52.341)" fill="#263238"/>
            <path id="Path_664" data-name="Path 664" d="M276.761,134.653l-93.96,93.3a33.017,33.017,0,0,1-46.693-.166l-58.981-59.4a33.017,33.017,0,0,1,.166-46.693l93.96-93.3a33.019,33.019,0,0,1,46.693.164l58.979,59.4a33.016,33.016,0,0,1-.164,46.693" transform="translate(67.6 18.826)" fill="#c2e109"/>
            <path id="Path_665" data-name="Path 665" d="M130.307,36.323l-4.418-16.88L114.383,21.35,111.062,9.162l3.76-.866,2.639,8.874,11.467-1.559,4.808,17.306Z" transform="translate(111.162 8.303)" fill="#455a64"/>
            <path id="Path_666" data-name="Path 666" d="M211.923,82.162l-81.217,80.646a27.939,27.939,0,0,1-39.51-.14l-3.734-3.76A27.936,27.936,0,0,1,87.6,119.4l81.219-80.646a27.934,27.934,0,0,1,39.508.14l3.732,3.758a27.939,27.939,0,0,1-.138,39.51" transform="translate(79.422 30.669)" fill="#263238"/>
            <path id="Path_667" data-name="Path 667" d="M219.7,92.749s.242-.32.752-.906a30.634,30.634,0,0,0,2.2-2.647,34.074,34.074,0,0,0,5.867-11.749,37.963,37.963,0,0,0,1.325-9.41,36.528,36.528,0,0,0-1.795-11.127A34.615,34.615,0,0,0,221.8,45.6q-1.162-1.279-2.355-2.589-1.267-1.27-2.563-2.569a52.727,52.727,0,0,0-5.53-5.044,34.81,34.81,0,0,0-39.822-1.7,42.454,42.454,0,0,0-7.225,6.043q-6.864,6.831-14.114,14.046C130.86,73,109.611,94.124,87.3,116.292a34.819,34.819,0,0,0-9.944,20.217,36.2,36.2,0,0,0,.36,11.179A34.85,34.85,0,0,0,81.57,158a36.932,36.932,0,0,0,3.029,4.532c1.189,1.369,2.353,2.723,3.666,4,2.593,2.569,5,5.248,7.892,7.245a34.7,34.7,0,0,0,38,1.737,36.243,36.243,0,0,0,3.918-2.663c1.193-1.024,2.363-2.037,3.478-3.135q3.34-3.3,6.569-6.5c8.616-8.52,16.641-16.459,23.971-23.711,14.655-14.452,26.524-26.158,34.758-34.279l9.488-9.284c1.072-1.032,1.9-1.827,2.485-2.4.564-.534.872-.79.872-.79s-.258.306-.8.866c-.572.584-1.373,1.4-2.413,2.469-2.167,2.181-5.312,5.352-9.35,9.42-8.18,8.178-19.969,19.963-34.526,34.518l-23.879,23.8q-3.22,3.208-6.551,6.523c-1.109,1.1-2.327,2.163-3.542,3.209a37.466,37.466,0,0,1-4.014,2.745,35.624,35.624,0,0,1-39.052-1.719c-3-2.067-5.454-4.8-8.026-7.341-1.3-1.259-2.527-2.677-3.744-4.08a37.688,37.688,0,0,1-3.121-4.66,35.83,35.83,0,0,1-3.974-10.613,37.213,37.213,0,0,1-.378-11.509,35.843,35.843,0,0,1,10.241-20.827C108.9,93.4,130.166,72.3,149.517,53.107q7.26-7.191,14.144-14.014a43.4,43.4,0,0,1,7.393-6.145,35.754,35.754,0,0,1,26.006-4.866A36.092,36.092,0,0,1,211.8,34.813a53.029,53.029,0,0,1,5.579,5.134l2.551,2.581q1.207,1.345,2.381,2.649A35.161,35.161,0,0,1,228.6,56.727a36.907,36.907,0,0,1,1.737,11.313,38.108,38.108,0,0,1-1.431,9.518,33.508,33.508,0,0,1-6.091,11.767,25.623,25.623,0,0,1-2.289,2.589c-.536.564-.83.834-.83.834" transform="translate(76.121 27.463)" fill="#263238"/>
            <path id="Path_668" data-name="Path 668" d="M96.361,109.571c-.288,0-.634-8.056-.774-18s-.022-18.014.266-18.018.634,8.054.774,18,.022,18.012-.266,18.016" transform="translate(95.613 73.619)" fill="#fff"/>
            <path id="Path_669" data-name="Path 669" d="M122.675,81.919c.014.288-8.042.884-17.988,1.335s-18.024.58-18.038.292,8.042-.884,17.99-1.335,18.022-.58,18.036-.292" transform="translate(86.727 81.84)" fill="#fff"/>
            <path id="Path_670" data-name="Path 670" d="M132,73.247c-.288,0-.634-8.056-.776-18s-.02-18.012.268-18.016.634,8.054.774,18,.022,18.012-.266,18.016" transform="translate(131.286 37.263)" fill="#fff"/>
            <path id="Path_671" data-name="Path 671" d="M158.315,45.6c.014.288-8.042.884-17.988,1.335s-18.024.578-18.038.292,8.042-.884,17.99-1.335,18.022-.58,18.036-.292" transform="translate(122.399 45.485)" fill="#fff"/>
            <path id="Path_672" data-name="Path 672" d="M123.174,3.014a10.2,10.2,0,1,1-14.428-.05,10.2,10.2,0,0,1,14.428.05" transform="translate(105.826 0)" fill="#263238"/>
            <path id="Path_673" data-name="Path 673" d="M147.2,142.249a9.566,9.566,0,0,1-1.763-1.453c-1.086-.984-2.635-2.433-4.532-4.24-3.794-3.614-8.982-8.658-14.657-14.284s-10.765-10.779-14.392-14.561c-3.622-3.762-5.807-6.233-5.633-6.351a17.355,17.355,0,0,1,1.687,1.533l4.468,4.3c3.91,3.84,8.988,8.824,14.6,14.338,5.675,5.627,10.781,10.755,14.443,14.5l4.3,4.476a9.644,9.644,0,0,1,1.477,1.741" transform="translate(106.305 101.452)" fill="#263238"/>
            <path id="Path_674" data-name="Path 674" d="M190.512,98.623a9.449,9.449,0,0,1-1.765-1.453c-1.087-.984-2.635-2.433-4.532-4.24-3.794-3.612-8.982-8.656-14.657-14.284S158.794,67.87,155.168,64.086c-3.624-3.762-5.809-6.233-5.633-6.351a17.7,17.7,0,0,1,1.687,1.533c1.213,1.171,2.707,2.605,4.468,4.3l14.6,14.338c5.675,5.627,10.781,10.755,14.443,14.5q2.542,2.644,4.3,4.476a9.724,9.724,0,0,1,1.479,1.741" transform="translate(149.661 57.787)" fill="#263238"/>
            <rect id="Rectangle_4549" data-name="Rectangle 4549" width="104.356" height="11.454" transform="matrix(0.701, -0.713, 0.713, 0.701, 225.558, 202.378)" fill="#263238"/>
            <path id="Path_675" data-name="Path 675" d="M93.527,97.588a2.189,2.189,0,1,1-2.1-2.275,2.187,2.187,0,0,1,2.1,2.275" transform="translate(89.231 95.397)" fill="#263238"/>
            <path id="Path_676" data-name="Path 676" d="M101.868,106.4a2.189,2.189,0,1,1-2.1-2.275,2.187,2.187,0,0,1,2.1,2.275" transform="translate(97.58 104.214)" fill="#263238"/>
            <path id="Path_677" data-name="Path 677" d="M159,59.166a2.19,2.19,0,1,1-2.1-2.275,2.187,2.187,0,0,1,2.1,2.275" transform="translate(154.757 56.94)" fill="#263238"/>
            <path id="Path_678" data-name="Path 678" d="M167.337,67.974a2.189,2.189,0,1,1-2.1-2.275,2.187,2.187,0,0,1,2.1,2.275" transform="translate(163.108 65.756)" fill="#263238"/>
            <path id="Path_679" data-name="Path 679" d="M84.271,126.917a60.515,60.515,0,0,0-4.624-4.1c-1.507-1.177-3.4-2.471-5.344-4.174a20.956,20.956,0,0,1-5.092-6.691A22.524,22.524,0,0,1,67.64,96.987a18.7,18.7,0,0,1,1.631-4.312c.558-.936.894-1.431.956-1.395.194.1-1.147,2.135-1.867,5.867a23.171,23.171,0,0,0,1.791,14.35c2.415,5.308,7.061,8.234,9.96,10.745,3.007,2.481,4.274,4.618,4.16,4.674" transform="translate(67.073 91.361)" fill="#fff"/>
            <path id="Path_680" data-name="Path 680" d="M166.472,28.65c.2.206-20.833,20.969-46.977,46.367S71.99,120.849,71.79,120.643,92.619,99.678,118.771,74.27s47.5-45.827,47.7-45.621" transform="translate(71.853 28.674)" fill="#fff"/>
            <path id="Path_681" data-name="Path 681" d="M57.131,67.95c-.028.114-1.046,0-2.4-.894a8.223,8.223,0,0,1-2.387-11.217c.87-1.365,1.751-1.885,1.825-1.791.116.118-.548.81-1.181,2.145A8.4,8.4,0,0,0,55.18,66.469c1.121.962,2.009,1.325,1.951,1.481" transform="translate(51.138 54.085)" fill="#fff"/>
            <path id="Path_682" data-name="Path 682" d="M112.664,16.215c-.024.112-1.128-.022-2.553-1.032a8.5,8.5,0,0,1-3.426-5.713,8.506,8.506,0,0,1,1.865-6.395c1.123-1.339,2.155-1.747,2.209-1.645.1.136-.74.75-1.617,2.083a8.8,8.8,0,0,0-1.425,5.825,8.8,8.8,0,0,0,2.853,5.27c1.187,1.066,2.155,1.449,2.093,1.607" transform="translate(106.719 1.417)" fill="#fff"/>
            <path id="Path_683" data-name="Path 683" d="M155.257,17c0,.322-3.9.116-8.22,1.867-4.35,1.687-7.043,4.506-7.267,4.274-.228-.126,2.269-3.442,6.883-5.242,4.592-1.849,8.684-1.147,8.6-.9" transform="translate(139.882 16.678)" fill="#fff"/>
            <path id="Path_684" data-name="Path 684" d="M104.113,127.167c-.206.2-6.893-6.385-14.933-14.7S74.791,97.231,75,97.031s6.891,6.383,14.933,14.707,14.388,15.229,14.182,15.429" transform="translate(75.06 97.114)" fill="#fff"/>
            <rect id="Rectangle_4550" data-name="Rectangle 4550" width="85.619" height="121.353" transform="translate(324.506 704.82)" fill="#f2ef25"/>
            <path id="Path_685" data-name="Path 685" d="M263.941,424.35H156.8v-1.083a11.41,11.41,0,0,1,11.411-11.411H252.53a11.41,11.41,0,0,1,11.411,11.411Z" transform="translate(156.944 412.227)" fill="#263238"/>
            <rect id="Rectangle_4551" data-name="Rectangle 4551" width="130.033" height="19.769" transform="translate(303.983 836.577)" fill="#f2ef25"/>
            <path id="Path_686" data-name="Path 686" d="M247.171,406.493c0,.288-18.981.52-42.389.52s-42.393-.232-42.393-.52,18.977-.52,42.393-.52,42.389.232,42.389.52" transform="translate(162.535 406.339)" fill="#263238"/>
            <path id="Path_687" data-name="Path 687" d="M247.171,399.281c0,.288-18.981.52-42.389.52s-42.393-.232-42.393-.52,18.977-.52,42.393-.52,42.389.232,42.389.52" transform="translate(162.535 399.12)" fill="#263238"/>
            <path id="Path_688" data-name="Path 688" d="M247.171,392.2c0,.288-18.981.52-42.389.52s-42.393-.232-42.393-.52,18.977-.52,42.393-.52,42.389.232,42.389.52" transform="translate(162.535 392.03)" fill="#263238"/>
            <path id="Path_689" data-name="Path 689" d="M247.171,384.985c0,.288-18.981.52-42.389.52s-42.393-.232-42.393-.52,18.977-.52,42.393-.52,42.389.232,42.389.52" transform="translate(162.535 384.812)" fill="#263238"/>
            <path id="Path_690" data-name="Path 690" d="M247.171,377.9c0,.288-18.981.52-42.389.52s-42.393-.232-42.393-.52,18.977-.52,42.393-.52,42.389.232,42.389.52" transform="translate(162.535 377.721)" fill="#263238"/>
            <path id="Path_691" data-name="Path 691" d="M247.171,370.689c0,.288-18.981.52-42.389.52s-42.393-.232-42.393-.52,18.977-.52,42.393-.52,42.389.232,42.389.52" transform="translate(162.535 370.503)" fill="#263238"/>
            <path id="Path_692" data-name="Path 692" d="M247.171,363.605c0,.288-18.981.52-42.389.52s-42.393-.232-42.393-.52,18.977-.52,42.393-.52,42.389.232,42.389.52" transform="translate(162.535 363.412)" fill="#263238"/>
            <path id="Path_693" data-name="Path 693" d="M247.171,356.393c0,.288-18.981.52-42.389.52s-42.393-.232-42.393-.52,18.977-.52,42.393-.52,42.389.232,42.389.52" transform="translate(162.535 356.194)" fill="#263238"/>
            <g id="Group_566" data-name="Group 566" transform="translate(323.736 706.99)" opacity="0.3">
              <g id="Group_565" data-name="Group 565">
                <g id="Group_564" data-name="Group 564" clip-path="url(#clip-path-3)">
                  <path id="Path_694" data-name="Path 694" d="M162.565,368.074l85.2-2.367V353.336H161.8Z" transform="translate(-161.795 -353.336)"/>
                </g>
              </g>
            </g>
            <rect id="Rectangle_4553" data-name="Rectangle 4553" width="85.619" height="121.353" transform="translate(458.609 704.82)" fill="#f2ef25"/>
            <path id="Path_695" data-name="Path 695" d="M330.961,424.35H223.823v-1.083a11.41,11.41,0,0,1,11.411-11.411H319.55a11.41,11.41,0,0,1,11.411,11.411Z" transform="translate(224.025 412.227)" fill="#263238"/>
            <rect id="Rectangle_4554" data-name="Rectangle 4554" width="130.033" height="19.769" transform="translate(438.085 836.577)" fill="#f2ef25"/>
            <path id="Path_696" data-name="Path 696" d="M314.192,406.493c0,.288-18.981.52-42.389.52s-42.393-.232-42.393-.52,18.977-.52,42.393-.52,42.389.232,42.389.52" transform="translate(229.617 406.339)" fill="#263238"/>
            <path id="Path_697" data-name="Path 697" d="M314.192,399.281c0,.288-18.981.52-42.389.52s-42.393-.232-42.393-.52,18.977-.52,42.393-.52,42.389.232,42.389.52" transform="translate(229.617 399.12)" fill="#263238"/>
            <path id="Path_698" data-name="Path 698" d="M314.192,392.2c0,.288-18.981.52-42.389.52s-42.393-.232-42.393-.52,18.977-.52,42.393-.52,42.389.232,42.389.52" transform="translate(229.617 392.03)" fill="#263238"/>
            <path id="Path_699" data-name="Path 699" d="M314.192,384.985c0,.288-18.981.52-42.389.52s-42.393-.232-42.393-.52,18.977-.52,42.393-.52,42.389.232,42.389.52" transform="translate(229.617 384.812)" fill="#263238"/>
            <path id="Path_700" data-name="Path 700" d="M314.192,377.9c0,.288-18.981.52-42.389.52s-42.393-.232-42.393-.52,18.977-.52,42.393-.52,42.389.232,42.389.52" transform="translate(229.617 377.721)" fill="#263238"/>
            <path id="Path_701" data-name="Path 701" d="M314.192,370.689c0,.288-18.981.52-42.389.52s-42.393-.232-42.393-.52,18.977-.52,42.393-.52,42.389.232,42.389.52" transform="translate(229.617 370.503)" fill="#263238"/>
            <path id="Path_702" data-name="Path 702" d="M314.192,363.605c0,.288-18.981.52-42.389.52s-42.393-.232-42.393-.52,18.977-.52,42.393-.52,42.389.232,42.389.52" transform="translate(229.617 363.412)" fill="#263238"/>
            <path id="Path_703" data-name="Path 703" d="M314.192,356.393c0,.288-18.981.52-42.389.52s-42.393-.232-42.393-.52,18.977-.52,42.393-.52,42.389.232,42.389.52" transform="translate(229.617 356.194)" fill="#263238"/>
            <g id="Group_569" data-name="Group 569" transform="translate(457.838 706.99)" opacity="0.3">
              <g id="Group_568" data-name="Group 568">
                <g id="Group_567" data-name="Group 567" clip-path="url(#clip-path-3)">
                  <path id="Path_704" data-name="Path 704" d="M229.586,368.074l85.2-2.367V353.336H228.816Z" transform="translate(-228.816 -353.336)"/>
                </g>
              </g>
            </g>
            <path id="Path_705" data-name="Path 705" d="M315,189.937l-3.912,15.5L276.8,196.776a3.666,3.666,0,0,1-2.655-4.454l2.117-8.384a3.663,3.663,0,0,1,4.45-2.657Z" transform="translate(274.275 181.332)" fill="#e8505b"/>
            <path id="Path_706" data-name="Path 706" d="M315,189.937l-3.912,15.5L276.8,196.776a3.666,3.666,0,0,1-2.655-4.454l2.117-8.384a3.663,3.663,0,0,1,4.45-2.657Z" transform="translate(274.275 181.332)" fill="#843982"/>
            <path id="Path_707" data-name="Path 707" d="M312.676,201.769l-5.887,23.314-31.946-8.066a6.087,6.087,0,0,1-4.41-7.389l2.907-11.515a6.085,6.085,0,0,1,7.389-4.41Z" transform="translate(270.49 193.691)" fill="#d85ad0"/>
            <rect id="Rectangle_4556" data-name="Rectangle 4556" width="40.803" height="15.408" transform="translate(564.347 407.06) rotate(-75.83)" fill="#d85ad0"/>
            <path id="Path_708" data-name="Path 708" d="M307.028,339.181s63.921-2.6,58.636-63.855c-4.048-46.925-73.843-47.353-73.843-47.353l17.846-39s81.563,7.1,97.662,66.49c18.188,67.1-23.873,121.841-100.3,120.552Z" transform="translate(292.084 189.147)" fill="#d85ad0"/>
            <rect id="Rectangle_4557" data-name="Rectangle 4557" width="55.395" height="24.889" transform="translate(570.696 421.36) rotate(-77.539)" fill="#263238"/>
            <path id="Path_709" data-name="Path 709" d="M309.859,213.053c-.058.466-5.512-.472-12.1-1.977s-11.883-3-11.817-3.277,5.454.756,12.049,2.263c3.3.75,6.271,1.473,8.416,2.021.866.23,1.7.45,2.535.67a4.951,4.951,0,0,1,.916.3" transform="translate(286.199 207.94)" fill="#455a64"/>
            <path id="Path_710" data-name="Path 710" d="M310.934,208.187c-.056.466-5.513-.472-12.1-1.977s-11.883-3-11.817-3.277,5.454.756,12.049,2.263c3.3.75,6.269,1.473,8.416,2.021.866.23,1.7.45,2.535.67a4.953,4.953,0,0,1,.916.3" transform="translate(287.275 203.07)" fill="#455a64"/>
            <path id="Path_711" data-name="Path 711" d="M312.22,203.321c-.058.466-5.513-.472-12.1-1.977s-11.883-3-11.817-3.277,5.454.756,12.049,2.263c3.3.75,6.269,1.475,8.416,2.021.866.23,1.7.45,2.535.67a4.952,4.952,0,0,1,.916.3" transform="translate(288.563 198.2)" fill="#455a64"/>
            <path id="Path_712" data-name="Path 712" d="M313.085,198.454c-.056.466-5.513-.472-12.1-1.977s-11.883-3-11.817-3.277,5.455.756,12.049,2.263c3.3.75,6.271,1.475,8.416,2.021.866.23,1.7.45,2.535.67a4.949,4.949,0,0,1,.916.3" transform="translate(289.428 193.328)" fill="#455a64"/>
            <path id="Path_713" data-name="Path 713" d="M314.337,193.9c-.056.466-5.512-.472-12.1-1.977s-11.883-3-11.817-3.277,5.454.756,12.049,2.263c3.3.75,6.269,1.473,8.416,2.021l2.535.67a4.943,4.943,0,0,1,.916.3" transform="translate(290.681 188.771)" fill="#455a64"/>
            <path id="Path_714" data-name="Path 714" d="M308.587,301.021c-.136.024-.654-2.031-1.3-5.394s-1.4-8.038-1.987-13.232-.892-9.922-1.014-13.346-.074-5.541.064-5.549.364,2.1.672,5.5.73,8.1,1.313,13.274,1.223,9.844,1.681,13.23.718,5.489.572,5.515" transform="translate(304.491 263.738)" fill="#263238"/>
            <path id="Path_715" data-name="Path 715" d="M321.661,299.947c-.278.076-2.885-8.472-5.823-19.093s-5.1-19.3-4.82-19.373,2.885,8.47,5.825,19.095,5.1,19.295,4.818,19.371" transform="translate(311.274 261.716)" fill="#263238"/>
            <path id="Path_716" data-name="Path 716" d="M340.74,294.368c-.128.072-1.407-1.971-3.41-5.3l-7.8-13.038c-2.975-4.946-5.667-9.416-7.834-13.016-2-3.338-3.2-5.426-3.073-5.506s1.537,1.871,3.7,5.112,5.048,7.779,8.106,12.874,5.7,9.78,7.541,13.21,2.893,5.6,2.769,5.669" transform="translate(318.907 257.733)" fill="#263238"/>
            <path id="Path_717" data-name="Path 717" d="M358.35,281.4c-.184.222-8.14-6.079-17.768-14.068s-17.286-14.651-17.1-14.873,8.138,6.077,17.768,14.07,17.286,14.649,17.1,14.871" transform="translate(323.769 252.683)" fill="#263238"/>
            <path id="Path_718" data-name="Path 718" d="M368.963,263.261c-.11.266-9.522-3.4-21.017-8.188s-20.729-8.886-20.617-9.152,9.518,3.4,21.019,8.19,20.725,8.884,20.615,9.15" transform="translate(327.622 246.129)" fill="#263238"/>
            <path id="Path_719" data-name="Path 719" d="M374.574,244.081c-.022.144-2.593-.126-6.733-.628l-16.173-2L335.486,239.5c-4.14-.508-6.7-.862-6.685-1.01s2.6-.042,6.759.278,9.907.874,16.233,1.647,12.033,1.615,16.151,2.3,6.651,1.219,6.629,1.359" transform="translate(329.097 238.645)" fill="#263238"/>
            <path id="Path_720" data-name="Path 720" d="M371.284,227.448c.038.132-2.259.948-6.043,2.053s-9.052,2.471-14.935,3.712-11.261,2.115-15.167,2.629-6.337.7-6.355.56,2.375-.586,6.241-1.287,9.2-1.689,15.067-2.921,11.141-2.485,14.961-3.406,6.189-1.485,6.231-1.341" transform="translate(329.081 227.631)" fill="#263238"/>
            <path id="Path_721" data-name="Path 721" d="M365.4,214.187c.13.256-8.446,4.84-19.151,10.237s-19.493,9.562-19.623,9.306,8.444-4.84,19.153-10.237,19.491-9.562,19.621-9.306" transform="translate(326.924 214.368)" fill="#263238"/>
            <path id="Path_722" data-name="Path 722" d="M354.04,203.433c.188.218-6.941,6.665-15.921,14.4s-16.413,13.828-16.6,13.61,6.939-6.665,15.923-14.4,16.411-13.826,16.6-13.608" transform="translate(321.804 203.611)" fill="#263238"/>
            <path id="Path_723" data-name="Path 723" d="M334.382,195.444c.246.148-4.256,8.066-10.057,17.68s-10.7,17.294-10.947,17.144,4.254-8.064,10.057-17.682,10.7-17.29,10.947-17.142" transform="translate(313.652 195.618)" fill="#263238"/>
            <path id="Path_724" data-name="Path 724" d="M317.885,190.444c.274.09-2.395,8.924-5.959,19.731s-6.677,19.5-6.951,19.407,2.4-8.924,5.961-19.733,6.675-19.495,6.949-19.4" transform="translate(305.231 190.615)" fill="#263238"/>
            <g id="Group_572" data-name="Group 572" transform="translate(614.267 448.618)" opacity="0.3">
              <g id="Group_571" data-name="Group 571">
                <g id="Group_570" data-name="Group 570" clip-path="url(#clip-path-5)">
                  <path id="Path_725" data-name="Path 725" d="M345.869,271.427c-5.749,12.708-15.277,19.721-23.182,23.779a73.206,73.206,0,0,1-15.691,6.109c12.228,6.523,28.191,2.619,38.888-6.193s16.321-22.844,16.706-36.7a43.509,43.509,0,0,0-3.462-19.213c-2.719-5.975-7.213-12.242-13.168-15a36.743,36.743,0,0,1,3.72,10.5c1.889,9.188,2.3,23.22-3.81,36.717" transform="translate(-306.995 -224.208)"/>
                </g>
              </g>
            </g>
            <path id="Path_726" data-name="Path 726" d="M91.571,301.753a16.121,16.121,0,0,1,1.985,2.209c1.239,1.455,2.925,3.648,4.91,6.429a139.667,139.667,0,0,1,13.258,23.16,139.694,139.694,0,0,1,8.586,25.273c.77,3.329,1.3,6.047,1.569,7.938a16.079,16.079,0,0,1,.34,2.949,16.4,16.4,0,0,1-.738-2.873c-.394-1.863-1.028-4.546-1.887-7.836a160.694,160.694,0,0,0-8.818-25.023,160.913,160.913,0,0,0-12.916-23.17c-1.9-2.821-3.488-5.072-4.624-6.6a16.185,16.185,0,0,1-1.665-2.457" transform="translate(91.65 302.023)" fill="#263238"/>
            <path id="Path_727" data-name="Path 727" d="M87.34,298.227c.19-.214,1.134.314,2.109,1.18s1.611,1.743,1.423,1.959-1.137-.314-2.113-1.181-1.609-1.743-1.419-1.959" transform="translate(87.385 298.448)" fill="#263238"/>
            <path id="Path_728" data-name="Path 728" d="M88.324,295.272c.246-.148,1.237,1.05,2.211,2.675s1.563,3.065,1.317,3.214-1.237-1.051-2.211-2.677-1.563-3.063-1.317-3.211" transform="translate(88.348 295.526)" fill="#263238"/>
            <path id="Path_729" data-name="Path 729" d="M106.8,406.255a9.652,9.652,0,0,1,.308-1.607q.4-1.7,1.072-4.558c.932-3.958,2.285-9.682,3.822-16.786,3.079-14.2,6.821-33.941,9.566-55.943,1.469-10.969,1.995-21.61,4.562-30.99A46.854,46.854,0,0,1,131.5,283.73a36.98,36.98,0,0,1,7.976-8.926,37.882,37.882,0,0,1,15.459-7.541,32.985,32.985,0,0,1,4.648-.7,9.623,9.623,0,0,1,1.637-.042,9.625,9.625,0,0,1-1.615.252,40.98,40.98,0,0,0-4.574.882,38.7,38.7,0,0,0-15.089,7.717,36.62,36.62,0,0,0-7.709,8.814,46.428,46.428,0,0,0-5.172,12.436c-2.483,9.24-2.985,19.861-4.456,30.868-2.751,22.04-6.615,41.8-9.882,55.973-1.629,7.091-3.093,12.8-4.146,16.726q-.792,2.827-1.265,4.51a9.577,9.577,0,0,1-.51,1.555" transform="translate(106.892 266.744)" fill="#455a64"/>
            <path id="Path_730" data-name="Path 730" d="M107.988,257.046c.224-.124,1.209,3.4,5.1,7.451,3.8,4.054,10.781,8.144,19.247,9.358,8.484,1.186,16.293-.034,21.834-.922l6.589-1.153a11.414,11.414,0,0,1,2.443-.316,11.029,11.029,0,0,1-2.357.712c-1.535.39-3.764.92-6.543,1.481-5.526,1.076-13.42,2.441-22.116,1.231-8.706-1.247-15.863-5.581-19.635-9.888a21.764,21.764,0,0,1-3.75-5.619,8.589,8.589,0,0,1-.812-2.335" transform="translate(108.079 257.274)" fill="#263238"/>
            <path id="Path_731" data-name="Path 731" d="M104.205,253.905c.2-.2,1.159.422,2.133,1.4s1.6,1.931,1.4,2.135-1.159-.422-2.135-1.4-1.6-1.929-1.4-2.133" transform="translate(104.261 254.096)" fill="#263238"/>
            <path id="Path_732" data-name="Path 732" d="M105.355,252.154c.244-.152,1.151.864,2.023,2.269s1.381,2.667,1.137,2.819-1.151-.864-2.023-2.269-1.381-2.667-1.137-2.819" transform="translate(105.388 252.366)" fill="#263238"/>
            <path id="Path_733" data-name="Path 733" d="M108.983,251.919c.284.046.334,1.223.11,2.629s-.636,2.513-.92,2.467-.332-1.223-.11-2.629.636-2.513.92-2.467" transform="translate(108.021 252.144)" fill="#263238"/>
            <path id="Path_734" data-name="Path 734" d="M126.92,290.972a23.216,23.216,0,0,1-.174,3.562c-.174,2.287-.506,5.59-.984,9.662-.954,8.148-2.619,19.367-5.118,31.636s-5.372,23.248-7.685,31.118c-1.155,3.936-2.143,7.1-2.879,9.276a23.314,23.314,0,0,1-1.235,3.344,23.372,23.372,0,0,1,.846-3.462c.648-2.373,1.513-5.531,2.557-9.356,2.129-7.908,4.872-18.887,7.375-31.128s4.268-23.415,5.408-31.522c.536-3.93.978-7.173,1.311-9.612a23.189,23.189,0,0,1,.578-3.518" transform="translate(108.932 291.234)" fill="#455a64"/>
            <path id="Path_735" data-name="Path 735" d="M152.792,267.865c.014.2-2.867.21-7.287,1.379a36.128,36.128,0,0,0-25.083,23.163c-1.519,4.312-1.761,7.183-1.955,7.153a6.659,6.659,0,0,1,.082-2.015,30.391,30.391,0,0,1,1.173-5.372,34.759,34.759,0,0,1,25.608-23.643,30.354,30.354,0,0,1,5.448-.742,6.652,6.652,0,0,1,2.015.078" transform="translate(118.532 268.013)" fill="#455a64"/>
            <path id="Path_736" data-name="Path 736" d="M111.551,401.572a7.688,7.688,0,0,1,.084-1.507c.094-.982.242-2.431.5-4.292.574-3.664,1.313-9.244,4.738-15.159,1.7-2.929,4.006-5.819,5.889-9.222a18.862,18.862,0,0,0,2.081-5.565,23.287,23.287,0,0,0,.17-6.321c-.324-4.344-1.589-9.016-.616-13.968a17.02,17.02,0,0,1,3.2-6.787c1.473-2.047,3.159-3.938,4.5-6.049a12.8,12.8,0,0,0,2.247-6.835,30.1,30.1,0,0,0-.956-7.145,42.318,42.318,0,0,1-1.153-13.942A39.718,39.718,0,0,1,153.33,273a34.635,34.635,0,0,1,3.948-1.777,8.387,8.387,0,0,1,1.443-.45,8.067,8.067,0,0,1-1.363.646c-.892.408-2.213,1.014-3.834,1.937a40.888,40.888,0,0,0-11.917,10.157,39.552,39.552,0,0,0-8.408,21.352,41.764,41.764,0,0,0,1.191,13.64,30.82,30.82,0,0,1,.994,7.4,13.8,13.8,0,0,1-2.4,7.365c-1.409,2.207-3.1,4.1-4.536,6.095a16.007,16.007,0,0,0-3.045,6.387c-.94,4.616.252,9.248.574,13.682a24.11,24.11,0,0,1-.23,6.577,19.667,19.667,0,0,1-2.223,5.807c-1.973,3.48-4.31,6.329-6.011,9.18-3.424,5.713-4.282,11.211-4.974,14.847-.286,1.769-.52,3.184-.7,4.254a8.469,8.469,0,0,1-.29,1.481" transform="translate(111.636 271.011)" fill="#455a64"/>
            <path id="Path_737" data-name="Path 737" d="M157.977,278.257a18.662,18.662,0,0,0-4.916.7,19.585,19.585,0,0,0-10.345,8.26c-3.2,4.778-4.624,11.643-5.386,19.2a243.335,243.335,0,0,1-3.664,24.653,398.051,398.051,0,0,1-11.921,43.658c-1.795,5.5-3.313,9.936-4.376,12.994-.516,1.441-.932,2.605-1.257,3.51a6.041,6.041,0,0,1-.506,1.2,6.151,6.151,0,0,1,.306-1.267c.276-.92.63-2.1,1.07-3.57,1-3.215,2.373-7.655,4.06-13.09,3.378-11.057,8.086-26.356,11.6-43.642,1.757-8.642,2.929-16.944,3.73-24.557.818-7.581,2.337-14.6,5.729-19.5a19.6,19.6,0,0,1,10.845-8.242,13.29,13.29,0,0,1,3.73-.46,6.03,6.03,0,0,1,1.3.154" transform="translate(115.704 278.354)" fill="#e0e0e0"/>
            <path id="Path_738" data-name="Path 738" d="M157.315,332.556h38.767s-23.5,186.66-153.3,186.024L44.454,482.2s88.292-5.473,112.861-149.639" transform="translate(42.826 332.856)" fill="#e8505b"/>
            <path id="Path_739" data-name="Path 739" d="M56.051,402.413l-.28,15.979-35.364-.622a3.664,3.664,0,0,1-3.6-3.73l.152-8.648a3.665,3.665,0,0,1,3.728-3.6Z" transform="translate(16.822 402.152)" fill="#e8505b"/>
            <g id="Group_575" data-name="Group 575" transform="translate(33.627 803.942)" opacity="0.3">
              <g id="Group_574" data-name="Group 574">
                <g id="Group_573" data-name="Group 573" clip-path="url(#clip-path-6)">
                  <path id="Path_740" data-name="Path 740" d="M56.051,402.413l-.28,15.979-35.364-.622a3.664,3.664,0,0,1-3.6-3.73l.152-8.648a3.665,3.665,0,0,1,3.728-3.6Z" transform="translate(-16.805 -401.79)"/>
                </g>
              </g>
            </g>
            <path id="Path_741" data-name="Path 741" d="M55.881,414.858,55.459,438.9l-32.945-.578a6.087,6.087,0,0,1-5.977-6.191l.208-11.873a6.084,6.084,0,0,1,6.193-5.977Z" transform="translate(16.551 414.652)" fill="#e8505b"/>
            <rect id="Rectangle_4560" data-name="Rectangle 4560" width="40.803" height="15.409" transform="translate(56.749 845.091) rotate(-88.994)" fill="#e8505b"/>
            <rect id="Rectangle_4561" data-name="Rectangle 4561" width="24.889" height="55.395" transform="translate(65.509 802.178) rotate(-0.7)" fill="#263238"/>
            <path id="Path_742" data-name="Path 742" d="M57.627,425.636c.05.468-5.474.794-12.232.83s-12.254-.214-12.254-.5,5.484-.506,12.248-.54c3.382-.02,6.441.006,8.656.052.9.024,1.763.05,2.621.074a4.883,4.883,0,0,1,.96.084" transform="translate(33.172 425.802)" fill="#455a64"/>
            <path id="Path_743" data-name="Path 743" d="M57.566,420.653c.05.466-5.474.794-12.232.83s-12.254-.214-12.254-.5,5.484-.506,12.248-.54c3.382-.02,6.441.006,8.656.05l2.621.076a4.7,4.7,0,0,1,.96.084" transform="translate(33.111 420.815)" fill="#455a64"/>
            <path id="Path_744" data-name="Path 744" d="M57.71,415.622c.05.468-5.474.794-12.232.83s-12.254-.214-12.254-.5,5.484-.506,12.248-.54c3.382-.02,6.441.006,8.656.05l2.621.076a4.9,4.9,0,0,1,.96.084" transform="translate(33.255 415.779)" fill="#455a64"/>
            <path id="Path_745" data-name="Path 745" d="M57.445,410.686c.05.466-5.474.794-12.232.83s-12.254-.214-12.254-.5,5.484-.506,12.248-.54c3.382-.02,6.441.006,8.656.05l2.621.076a4.7,4.7,0,0,1,.96.084" transform="translate(32.99 410.839)" fill="#455a64"/>
            <path id="Path_746" data-name="Path 746" d="M57.627,405.968c.05.466-5.474.794-12.232.83s-12.254-.214-12.254-.5,5.484-.506,12.248-.54c3.382-.02,6.441.006,8.656.05l2.619.076a4.9,4.9,0,0,1,.962.084" transform="translate(33.172 406.116)" fill="#455a64"/>
            <path id="Path_747" data-name="Path 747" d="M55.238,443.065c.054,0,.1.322.118,1l.04,1.161-.35-1.135a168.825,168.825,0,0,1-3.812-18.318c-.862-5.378-1.449-10.275-1.775-13.828s-.408-5.761-.27-5.775.49,2.165,1,5.687,1.213,8.39,2.073,13.752c1.381,8.684,2.781,16,3.089,18.416l-.31.028c.074-.676.14-.992.194-.991" transform="translate(49.169 406.538)" fill="#263238"/>
            <path id="Path_748" data-name="Path 748" d="M67.35,441.857c-.274.086-3.163-8.356-6.453-18.85s-5.733-19.079-5.458-19.165,3.163,8.354,6.453,18.853,5.733,19.077,5.458,19.163" transform="translate(55.467 404.206)" fill="#263238"/>
            <path id="Path_749" data-name="Path 749" d="M81.336,436.632c-.258.128-4.534-8-9.548-18.142s-8.872-18.476-8.614-18.6,4.532,7.994,9.548,18.144,8.872,18.474,8.614,18.6" transform="translate(63.219 400.245)" fill="#263238"/>
            <path id="Path_750" data-name="Path 750" d="M93.835,427.209c-.232.17-5.769-6.921-12.368-15.839S69.706,395.083,69.938,394.91s5.767,6.919,12.368,15.841,11.759,16.287,11.529,16.457" transform="translate(69.993 395.263)" fill="#263238"/>
            <path id="Path_751" data-name="Path 751" d="M104.313,417.159c-.2.2-6.647-5.937-14.388-13.712S76.07,389.2,76.274,389s6.645,5.937,14.388,13.714,13.854,14.246,13.65,14.448" transform="translate(76.338 389.342)" fill="#263238"/>
            <path id="Path_752" data-name="Path 752" d="M113.974,403.286c-.08.124-1.983-.928-5.02-2.689-3.324-1.943-7.365-4.308-11.831-6.921s-8.518-4.968-11.843-6.907c-3.025-1.781-4.874-2.921-4.806-3.051s2.043.788,5.162,2.407,7.383,3.948,12.011,6.653,8.752,5.268,11.693,7.193,4.708,3.2,4.634,3.315" transform="translate(80.544 384.052)" fill="#263238"/>
            <path id="Path_753" data-name="Path 753" d="M118.364,391.407c-.072.13-1.907-.744-4.854-2.183s-7.013-3.422-11.549-5.52-8.686-3.912-11.691-5.224-4.858-2.145-4.806-2.283,2,.458,5.082,1.6,7.3,2.855,11.851,4.962,8.588,4.2,11.455,5.813,4.58,2.713,4.512,2.835" transform="translate(85.539 376.517)" fill="#263238"/>
            <path id="Path_754" data-name="Path 754" d="M125.908,379.763c-.03.136-2.155-.2-5.551-.928s-8.058-1.877-13.148-3.354-9.64-3.011-12.9-4.216-5.23-2.061-5.184-2.191,2.109.472,5.418,1.493S102.427,373,107.5,374.48s9.686,2.729,13.03,3.64,5.408,1.5,5.376,1.643" transform="translate(89.207 369.387)" fill="#263238"/>
            <path id="Path_755" data-name="Path 755" d="M128.952,367.321c-.036.286-8.322-.534-18.5-1.831s-18.412-2.579-18.376-2.865,8.32.534,18.506,1.831,18.41,2.579,18.374,2.865" transform="translate(92.154 362.896)" fill="#263238"/>
            <path id="Path_756" data-name="Path 756" d="M131.963,357.573c-.012.144-2.067.068-5.384-.17s-7.894-.638-12.942-1.144-9.616-1.025-12.914-1.451-5.328-.76-5.31-.9,2.079-.068,5.394.17,7.89.638,12.934,1.145,9.6,1.022,12.9,1.449,5.334.76,5.322.9" transform="translate(95.498 354.151)" fill="#263238"/>
            <path id="Path_757" data-name="Path 757" d="M135.445,346.833c.008.288-8.628.79-19.289,1.125s-19.313.37-19.321.082,8.626-.79,19.289-1.124,19.311-.37,19.321-.082" transform="translate(96.923 346.952)" fill="#263238"/>
            <path id="Path_758" data-name="Path 758" d="M135.284,339.451c.014.136-2,.488-5.274.824s-7.828.626-12.858.652-9.584-.222-12.866-.526-5.294-.636-5.282-.772,2.049-.078,5.328.036,7.81.244,12.816.22,9.528-.2,12.808-.346,5.312-.238,5.328-.088" transform="translate(99.093 339.681)" fill="#263238"/>
            <path id="Path_759" data-name="Path 759" d="M154.432,335.328a1.851,1.851,0,0,1,.038.5c0,.394.006.88.008,1.479-.03,1.3.034,3.223-.13,5.689a148.492,148.492,0,0,1-2.457,20.783,156.868,156.868,0,0,1-8.7,29.793,159.1,159.1,0,0,1-18.282,33.309,159.244,159.244,0,0,1-25.832,27.877A157.062,157.062,0,0,1,73.554,472.43a148.086,148.086,0,0,1-18.943,8.9c-2.287.936-4.132,1.481-5.354,1.921-.57.186-1.03.338-1.407.46a1.751,1.751,0,0,1-.49.122,1.916,1.916,0,0,1,.454-.224c.366-.148.816-.33,1.371-.556,1.2-.5,3.017-1.108,5.276-2.1a163.426,163.426,0,0,0,18.73-9.162,160.906,160.906,0,0,0,25.259-17.756,161.284,161.284,0,0,0,25.612-27.755A161.227,161.227,0,0,0,142.3,393.216a161.032,161.032,0,0,0,8.87-29.573,163.767,163.767,0,0,0,2.775-20.667c.226-2.455.226-4.372.326-5.669.038-.6.068-1.082.094-1.477a1.89,1.89,0,0,1,.068-.5" transform="translate(47.403 335.63)" fill="#fff"/>
            <g id="Group_578" data-name="Group 578" transform="translate(310.394 289.088)" opacity="0.44">
              <g id="Group_577" data-name="Group 577">
                <g id="Group_576" data-name="Group 576" clip-path="url(#clip-path-7)">
                  <path id="Path_760" data-name="Path 760" d="M226.225,308.806s-21.46-29.027-71.1-24.727c0,0,50.525-38.809,20.8-78.691,0,0,63.811,18.852,64.535-60.909,0,0,11.6,73.961,71.786,52.934,0,0,4.272,58.763,45.929,47.886-20.157,19.847-39.776,37.315-35.778,62.65" transform="translate(-155.127 -144.48)" fill="#5c78ff"/>
                </g>
              </g>
            </g>
            <g id="Group_581" data-name="Group 581" transform="translate(341.112 320.672)" opacity="0.42">
              <g id="Group_580" data-name="Group 580">
                <g id="Group_579" data-name="Group 579" clip-path="url(#clip-path-8)">
                  <path id="Path_761" data-name="Path 761" d="M210.859,293.006s-.508-33.853-40.38-30.4c0,0,37.087-21.382,13.206-53.418,0,0,51.255,15.145,51.837-48.924,0,0,9.32,59.409,57.664,42.517,0,0-5.767,43.1,27.694,34.365-16.189,15.943-22.752,34.073-19.541,54.424" transform="translate(-170.479 -160.264)" fill="#5c78ff"/>
                </g>
              </g>
            </g>
            <path id="Path_762" data-name="Path 762" d="M235.813,114.383a6.674,6.674,0,0,1-.484,1.263c-.4.9-.92,2.077-1.567,3.53-.7,1.521-1.547,3.39-2.437,5.6s-2.013,4.674-3.037,7.489c-1.078,2.793-2.249,5.857-3.35,9.2-1.2,3.312-2.251,6.923-3.414,10.7-2.179,7.605-4.258,16.061-5.9,25.045-1.591,9-2.591,17.648-3.2,25.537-.23,3.95-.5,7.7-.534,11.225-.136,3.518-.106,6.8-.068,9.79-.024,3,.154,5.7.234,8.08.064,2.379.2,4.424.332,6.095.1,1.587.178,2.865.238,3.854a6.644,6.644,0,0,1,.012,1.353,6.588,6.588,0,0,1-.22-1.333c-.112-.984-.256-2.259-.434-3.84-.192-1.669-.39-3.714-.51-6.1-.136-2.381-.364-5.09-.388-8.1-.086-3-.158-6.293-.06-9.826,0-3.534.236-7.3.44-11.271a248.909,248.909,0,0,1,3.133-25.658A249.493,249.493,0,0,1,220.6,151.9c1.195-3.79,2.285-7.405,3.52-10.717,1.141-3.345,2.355-6.4,3.482-9.188,1.07-2.807,2.231-5.268,3.187-7.451s1.843-4.04,2.605-5.536c.718-1.421,1.3-2.565,1.745-3.45a6.65,6.65,0,0,1,.672-1.171" transform="translate(211.163 114.486)" fill="#5c78ff"/>
            <path id="Path_763" data-name="Path 763" d="M164.886,114.564c-.24.248-4.638-5.09-12.007-8.988-7.323-3.988-14.2-4.7-14.128-5.036.012-.12,1.733-.106,4.456.428a37.568,37.568,0,0,1,18.858,10.121c1.953,1.973,2.915,3.4,2.821,3.476" transform="translate(138.875 100.569)" fill="#5c78ff"/>
            <path id="Path_764" data-name="Path 764" d="M159.494,151.052a4.661,4.661,0,0,1,.828.784c.588.63,1.327,1.421,2.229,2.389,1.933,2.075,4.616,5.186,7.818,9.12s6.863,8.748,10.727,14.234c3.822,5.514,7.836,11.711,11.733,18.406,3.866,6.717,7.241,13.286,10.119,19.349,2.833,6.083,5.2,11.649,7,16.391s3.177,8.612,4.014,11.323c.39,1.265.706,2.3.96,3.119a4.811,4.811,0,0,1,.268,1.111,4.684,4.684,0,0,1-.466-1.044c-.3-.806-.682-1.817-1.146-3.053-.952-2.665-2.415-6.495-4.316-11.183-1.883-4.7-4.31-10.213-7.181-16.251-2.917-6.019-6.3-12.548-10.155-19.239-3.882-6.669-7.856-12.856-11.619-18.382-3.808-5.5-7.381-10.349-10.515-14.322s-5.711-7.157-7.547-9.312c-.842-1.018-1.531-1.851-2.079-2.515a4.788,4.788,0,0,1-.672-.924" transform="translate(159.636 151.186)" fill="#5c78ff"/>
            <path id="Path_765" data-name="Path 765" d="M239.417,156.158a3.7,3.7,0,0,1-.412.912l-1.353,2.511c-.608,1.076-1.339,2.4-2.113,3.978s-1.749,3.324-2.643,5.344c-1.917,3.98-3.946,8.838-5.943,14.322a154.616,154.616,0,0,0-8.318,36.957c-.548,5.811-.8,11.069-.77,15.487-.056,2.209.06,4.206.1,5.961s.118,3.267.2,4.5c.06,1.137.108,2.077.148,2.847a3.617,3.617,0,0,1-.02,1,3.637,3.637,0,0,1-.188-.978c-.094-.768-.206-1.7-.344-2.837-.15-1.231-.3-2.741-.382-4.5s-.262-3.764-.252-5.985a142.149,142.149,0,0,1,.55-15.585,145.523,145.523,0,0,1,8.372-37.193,142.482,142.482,0,0,1,6.181-14.316c.944-2.011,1.955-3.748,2.793-5.3s1.613-2.855,2.275-3.906c.608-.964,1.112-1.761,1.525-2.415a3.627,3.627,0,0,1,.592-.8" transform="translate(217.288 156.298)" fill="#5c78ff"/>
            <path id="Path_766" data-name="Path 766" d="M259.935,160.035c.1.138-1.671,1.441-4.334,3.754a74.261,74.261,0,0,0-17.042,21.4c-1.661,3.113-2.533,5.126-2.689,5.064-.112-.042.52-2.159,2.031-5.394a60.851,60.851,0,0,1,17.232-21.64c2.813-2.193,4.736-3.285,4.8-3.185" transform="translate(236.07 160.173)" fill="#5c78ff"/>
            <path id="Path_767" data-name="Path 767" d="M164.388,185.546c.066-.1,2.007.954,4.892,3.053a69.224,69.224,0,0,1,18.568,20.583c1.793,3.085,2.645,5.124,2.535,5.18-.146.076-1.227-1.837-3.161-4.792a87.445,87.445,0,0,0-18.392-20.387c-2.741-2.229-4.532-3.5-4.442-3.638" transform="translate(164.533 185.706)" fill="#5c78ff"/>
            <path id="Path_768" data-name="Path 768" d="M169.3,178.958c-.154.28-4.238-2-9.756-3.4-5.509-1.447-10.185-1.425-10.185-1.743-.038-.254,4.762-.754,10.445.734,5.693,1.449,9.652,4.208,9.5,4.412" transform="translate(149.489 173.679)" fill="#5c78ff"/>
            <path id="Path_769" data-name="Path 769" d="M140.354,151.455a13.37,13.37,0,0,1,1.311-3.316l-1.809-2.765,3.8-3.93,2.823,1.717a13.473,13.473,0,0,1,3.27-1.419l.678-3.233,5.466-.088.782,3.209a13.4,13.4,0,0,1,3.313,1.311l2.767-1.807,3.928,3.8-1.717,2.823a13.485,13.485,0,0,1,1.419,3.272l3.233.676.088,5.466-3.209.782a13.369,13.369,0,0,1-1.311,3.315L167,164.037l-3.8,3.928-2.823-1.717a13.319,13.319,0,0,1-3.269,1.419l-.678,3.233-5.466.09-.782-3.209a13.407,13.407,0,0,1-3.314-1.313l-2.767,1.809-3.928-3.8,1.717-2.825a13.472,13.472,0,0,1-1.419-3.269l-3.233-.676-.088-5.466Zm7.205,3.1a5.865,5.865,0,1,0,5.769-5.961,5.866,5.866,0,0,0-5.769,5.961" transform="translate(137.269 138.546)" fill="#e0e0e0" fill-rule="evenodd"/>
            <path id="Path_770" data-name="Path 770" d="M254.49,223.637a9.993,9.993,0,0,1,.968-2.445l-1.335-2.041,2.807-2.9,2.083,1.267a9.836,9.836,0,0,1,2.413-1.046l.5-2.385,4.034-.066.576,2.367a9.972,9.972,0,0,1,2.447.968l2.041-1.335,2.9,2.807-1.269,2.083a9.922,9.922,0,0,1,1.048,2.413l2.385.5.066,4.034-2.369.576a9.9,9.9,0,0,1-.966,2.447l1.333,2.041-2.805,2.9-2.083-1.269a9.954,9.954,0,0,1-2.413,1.048l-.5,2.385-4.034.066-.578-2.369a9.908,9.908,0,0,1-2.445-.966l-2.041,1.333-2.9-2.805,1.267-2.083a9.945,9.945,0,0,1-1.046-2.413l-2.385-.5-.066-4.034Zm5.318,2.287a4.329,4.329,0,1,0,4.258-4.4,4.331,4.331,0,0,0-4.258,4.4" transform="translate(252.35 214.214)" fill="#455a64" fill-rule="evenodd"/>
            <rect id="Rectangle_4564" data-name="Rectangle 4564" width="20.866" height="9.437" transform="matrix(0.429, -0.903, 0.903, 0.429, 457.748, 283.703)" fill="#e0e0e0"/>
            <path id="Path_771" data-name="Path 771" d="M228.776,151.546a22.012,22.012,0,0,1,2.465.978c1.515.644,3.644,1.559,6.219,2.729l-.5.18c2.235-4.914,5.344-11.587,8.822-18.909-.22-.62.3.844.248.692h0l-.006,0-.008,0L246,137.2l-.034-.016-.072-.034-.138-.066-.28-.132-.558-.266-1.1-.526-2.169-1.034-4.122-1.981.658-.234c-2.589,5.374-4.892,9.972-6.571,13.286l-2,3.9a10.542,10.542,0,0,1-.824,1.449,6.1,6.1,0,0,1,.508-1.355c.474-1.086,1.04-2.383,1.709-3.916,1.495-3.37,3.668-8.194,6.291-13.788l.208-.448.45.212,4.14,1.945,2.171,1.026,1.107.524.558.264.28.134.14.066.07.034.036.016.016.008.01,0,0,0,0,0c-.052-.15.468,1.315.248.7-3.478,7.319-6.687,13.946-9.084,18.784l-.17.342-.332-.164c-2.689-1.331-4.822-2.439-6.253-3.2a14.154,14.154,0,0,1-2.109-1.195" transform="translate(228.973 132.158)" fill="#263238"/>
            <path id="Path_772" data-name="Path 772" d="M242.9,129.8a8.707,8.707,0,0,0-11.6,4.128l15.729,7.473a8.705,8.705,0,0,0-4.128-11.6" transform="translate(231.504 129.072)" fill="#e0e0e0"/>
            <path id="Path_773" data-name="Path 773" d="M243.221,129.944c.02-.044.362.062.962.356a8.163,8.163,0,0,1,2.247,1.8,8.733,8.733,0,0,1,1.989,3.98,9.044,9.044,0,0,1-.636,5.673l-.2.436-.444-.208c-2.453-1.153-5.1-2.4-7.882-3.7l-7.848-3.774-.44-.212.212-.428a9.052,9.052,0,0,1,4-4.076,8.752,8.752,0,0,1,4.34-.972,8.141,8.141,0,0,1,2.813.606c.608.278.906.476.884.52a16.553,16.553,0,0,0-3.7-.544,8.583,8.583,0,0,0-3.96,1.1,8.4,8.4,0,0,0-3.508,3.78l-.228-.638c2.455,1.151,5.1,2.4,7.884,3.7,2.767,1.331,5.4,2.6,7.846,3.774l-.638.226a8.413,8.413,0,0,0,.712-5.106,8.548,8.548,0,0,0-1.649-3.764,16.5,16.5,0,0,0-2.759-2.525" transform="translate(231.181 128.929)" fill="#263238"/>
            <path id="Path_774" data-name="Path 774" d="M238.054,134.666a5.488,5.488,0,0,0-1.725-5.6" transform="translate(236.542 129.183)" fill="#e0e0e0"/>
            <path id="Path_775" data-name="Path 775" d="M236.341,129.089c.13-.25,1.607.548,2.169,2.4s-.2,3.336-.444,3.2c-.284-.092-.072-1.411-.552-2.9-.438-1.5-1.357-2.467-1.173-2.7" transform="translate(236.53 129.161)" fill="#263238"/>
            <path id="Path_776" data-name="Path 776" d="M232.39,133.712c.164-.248,2.115.788,4.578,1.889s4.524,1.887,4.448,2.175c-.064.27-2.327-.072-4.876-1.225s-4.308-2.611-4.15-2.839" transform="translate(232.59 133.795)" fill="#263238"/>
            <path id="Path_777" data-name="Path 777" d="M231.865,134.817c.164-.248,2.115.79,4.578,1.889s4.524,1.889,4.448,2.175-2.327-.07-4.876-1.225-4.308-2.609-4.15-2.839" transform="translate(232.064 134.901)" fill="#263238"/>
            <path id="Path_778" data-name="Path 778" d="M231.339,135.924c.164-.248,2.115.788,4.578,1.889s4.524,1.887,4.448,2.175c-.064.27-2.327-.072-4.876-1.225s-4.308-2.611-4.15-2.839" transform="translate(231.538 136.009)" fill="#263238"/>
            <path id="Path_779" data-name="Path 779" d="M230.814,137.028c.164-.246,2.115.79,4.578,1.889s4.524,1.889,4.448,2.177c-.064.27-2.327-.072-4.876-1.225s-4.308-2.611-4.15-2.841" transform="translate(231.012 137.115)" fill="#263238"/>
            <path id="Path_780" data-name="Path 780" d="M230.288,138.136c.164-.248,2.115.788,4.578,1.889s4.524,1.887,4.448,2.175c-.064.27-2.327-.072-4.876-1.225s-4.308-2.611-4.15-2.839" transform="translate(230.486 138.223)" fill="#263238"/>
            <path id="Path_781" data-name="Path 781" d="M229.763,139.242c.164-.248,2.115.788,4.578,1.889s4.524,1.887,4.448,2.175c-.064.27-2.327-.072-4.876-1.225s-4.31-2.611-4.15-2.839" transform="translate(229.96 139.33)" fill="#263238"/>
            <path id="Path_782" data-name="Path 782" d="M229.238,140.347c.164-.248,2.115.79,4.578,1.889s4.524,1.889,4.448,2.175-2.327-.07-4.876-1.225-4.308-2.609-4.15-2.839" transform="translate(229.435 140.436)" fill="#263238"/>
            <rect id="Rectangle_4565" data-name="Rectangle 4565" width="20.866" height="9.436" transform="translate(250.247 435.981) rotate(-24.4)" fill="#e0e0e0"/>
            <path id="Path_783" data-name="Path 783" d="M148.207,222.426a21.9,21.9,0,0,1-1.253-2.339c-.74-1.469-1.777-3.542-2.989-6.1l.5.188c-4.88,2.311-11.561,5.4-18.943,8.75-.232.616.314-.84.258-.688l0,0,0,0,0,.01.008.018.016.034.032.07.064.142.128.282.254.562.5,1.116q.5,1.108.988,2.189.966,2.158,1.871,4.174L129,230.6c5.446-2.435,10.173-4.462,13.594-5.909L146.642,223a10.3,10.3,0,0,1,1.565-.574,6.086,6.086,0,0,1-1.263.708l-3.832,1.887c-3.315,1.609-8.092,3.894-13.7,6.475l-.448.206-.206-.452-1.907-4.156q-.492-1.081-1-2.187l-.506-1.115-.256-.562-.126-.282-.066-.14-.032-.072-.016-.034-.008-.018,0-.01,0,0v0c-.058.148.49-1.307.26-.69,7.381-3.35,14.108-6.341,19.061-8.49l.352-.152.146.34c1.2,2.753,2.109,4.976,2.715,6.477a14.324,14.324,0,0,1,.84,2.273" transform="translate(124.94 213.528)" fill="#263238"/>
            <path id="Path_784" data-name="Path 784" d="M122.536,227.754a8.707,8.707,0,0,0,11.527,4.332l-7.2-15.859a8.709,8.709,0,0,0-4.332,11.527" transform="translate(121.866 216.422)" fill="#e0e0e0"/>
            <path id="Path_785" data-name="Path 785" d="M122.677,228.075c-.044.02-.238-.28-.506-.892a8.2,8.2,0,0,1-.554-2.825,8.745,8.745,0,0,1,1.048-4.322,9.044,9.044,0,0,1,4.146-3.924l.432-.206.2.444,3.634,7.912c1.255,2.8,2.451,5.472,3.56,7.948l.2.446-.438.19a9.059,9.059,0,0,1-5.685.534,8.727,8.727,0,0,1-3.942-2.059,8.155,8.155,0,0,1-1.761-2.277c-.284-.6-.382-.948-.338-.968a16.5,16.5,0,0,0,2.475,2.8,8.541,8.541,0,0,0,3.734,1.715,8.414,8.414,0,0,0,5.12-.622l-.24.634c-1.13-2.463-2.353-5.122-3.634-7.914l-3.56-7.946.636.24a8.4,8.4,0,0,0-3.842,3.442,8.541,8.541,0,0,0-1.169,3.938,16.5,16.5,0,0,0,.478,3.71" transform="translate(121.725 216.101)" fill="#263238"/>
            <path id="Path_786" data-name="Path 786" d="M124.862,220.026a5.49,5.49,0,0,0-2.3,5.388" transform="translate(122.601 220.224)" fill="#e0e0e0"/>
            <path id="Path_787" data-name="Path 787" d="M122.77,225.443c-.262.108-.874-1.457-.11-3.231s2.3-2.421,2.405-2.157c.158.252-.854,1.122-1.447,2.567-.63,1.427-.556,2.759-.848,2.821" transform="translate(122.399 220.196)" fill="#263238"/>
            <path id="Path_788" data-name="Path 788" d="M130.682,226.2c-.286.082-1.106-1.967-2.277-4.4s-2.239-4.362-2-4.532c.224-.166,1.733,1.555,2.935,4.082s1.607,4.774,1.339,4.846" transform="translate(126.488 217.459)" fill="#263238"/>
            <path id="Path_789" data-name="Path 789" d="M131.8,225.7c-.286.082-1.109-1.967-2.279-4.4s-2.239-4.362-1.995-4.532c.224-.166,1.733,1.555,2.935,4.082s1.607,4.774,1.339,4.846" transform="translate(127.604 216.953)" fill="#263238"/>
            <path id="Path_790" data-name="Path 790" d="M132.912,225.191c-.286.082-1.109-1.967-2.279-4.4s-2.239-4.362-1.995-4.534c.224-.164,1.733,1.557,2.935,4.084s1.607,4.774,1.339,4.846" transform="translate(128.72 216.445)" fill="#263238"/>
            <path id="Path_791" data-name="Path 791" d="M134.027,224.686c-.286.082-1.109-1.967-2.279-4.4s-2.239-4.362-1.995-4.532c.224-.166,1.733,1.555,2.935,4.082s1.607,4.774,1.339,4.846" transform="translate(129.836 215.941)" fill="#263238"/>
            <path id="Path_792" data-name="Path 792" d="M135.144,224.18c-.286.082-1.109-1.967-2.277-4.4s-2.243-4.362-2-4.532c.224-.166,1.731,1.555,2.933,4.082s1.607,4.774,1.341,4.846" transform="translate(130.952 215.434)" fill="#263238"/>
            <path id="Path_793" data-name="Path 793" d="M136.258,223.674c-.286.082-1.106-1.967-2.279-4.4s-2.239-4.362-1.995-4.532c.224-.166,1.733,1.555,2.935,4.082s1.607,4.774,1.339,4.846" transform="translate(132.069 214.928)" fill="#263238"/>
            <path id="Path_794" data-name="Path 794" d="M137.373,223.167c-.286.084-1.107-1.967-2.279-4.4s-2.239-4.362-1.995-4.532c.224-.164,1.733,1.555,2.935,4.082s1.607,4.774,1.339,4.846" transform="translate(133.185 214.422)" fill="#263238"/>
            <path id="Path_795" data-name="Path 795" d="M155.263,96.007s24.231,23.943,30.262,38.878c5.739,14.22,9.544,27.466,9.544,27.466s6.245-10.927,13.268,0,40.222,143.6,45.687,193.559h21.152s-9.86-83.508-14.543-92.874-8.586-12.488-8.586-12.488-5.464-35.124-9.366-40.586a26.324,26.324,0,0,0-8.586-7.806s-7.025-38.245-17.172-46.051-17.952-3.9-17.952-3.9-6.459-40.886-43.708-56.2" transform="translate(155.403 96.094)" fill="#5c78ff"/>
            <path id="Path_796" data-name="Path 796" d="M267.853,184.611c.066.328-6.6,1.331-14.05,4.756-7.483,3.36-12.622,7.717-12.826,7.451-.082-.1,1.092-1.309,3.255-2.967a48.411,48.411,0,0,1,19.245-8.742c2.671-.536,4.358-.624,4.376-.5" transform="translate(241.19 184.727)" fill="#455a64"/>
            <path id="Path_797" data-name="Path 797" d="M267.456,182.5c.1.318-6.665,2.1-14.11,6.265-7.481,4.108-12.576,8.9-12.794,8.644-.09-.092,1.071-1.407,3.209-3.261A55.166,55.166,0,0,1,262.99,183.5c2.705-.832,4.434-1.117,4.466-.992" transform="translate(240.763 182.642)" fill="#455a64"/>
            <path id="Path_798" data-name="Path 798" d="M261.327,187.72c.006.318-4.418.388-9.586,1.879-5.184,1.447-8.984,3.71-9.148,3.436-.162-.2,3.5-2.937,8.862-4.438,5.348-1.539,9.906-1.133,9.872-.876" transform="translate(242.806 187.642)" fill="#455a64"/>
            <path id="Path_799" data-name="Path 799" d="M228.981,264.105c-3.526-28.029,5.667-60.849,28.075-76.592l5.336,4.348s-27.843,16.563-25.806,72.459" transform="translate(228.455 187.682)" fill="#263238"/>
            <path id="Path_800" data-name="Path 800" d="M181.081,205.654c.082.322-5.212,1.341-10.737,4.784-5.567,3.38-8.866,7.643-9.114,7.425-.228-.1,2.8-4.8,8.568-8.314,5.731-3.562,11.293-4.146,11.283-3.9" transform="translate(161.363 205.789)" fill="#455a64"/>
            <path id="Path_801" data-name="Path 801" d="M181.823,204.4c.084.286-4.868,1.961-10.895,4.216s-10.871,4.222-10.995,3.952c-.118-.252,4.556-2.669,10.631-4.928s11.183-3.508,11.259-3.239" transform="translate(160.075 204.55)" fill="#455a64"/>
            <path id="Path_802" data-name="Path 802" d="M236.522,256.782l-9.68-2.525a22.06,22.06,0,0,0-2.6-16.962,21.53,21.53,0,0,0-4.72-5.3c-1,6.335-4.992,11.915-10.623,14.252a15.724,15.724,0,0,1-13.3-.826,13.9,13.9,0,0,1-7.271-9.458c-1.191-6.047,2-12.65,7.756-16.055a19.806,19.806,0,0,1,7.325-2.5q-.354-.291-.724-.576c-8.434-6.443-21.406-6.8-30.176-.814l-5.639-8.266a36.662,36.662,0,0,1,41.889,1.132,29.492,29.492,0,0,1,8.7,10.443,31.631,31.631,0,0,1,19.061,37.449m-29.815-29.6a10.836,10.836,0,0,0-5.529,1.339c-2.067,1.223-3.4,3.644-3.031,5.51a4.122,4.122,0,0,0,2.179,2.571,5.787,5.787,0,0,0,4.742.4c3.027-1.257,5.064-5.28,4.632-9.162-.016-.132-.032-.264-.052-.4a17.073,17.073,0,0,0-2.941-.266" transform="translate(167.023 201.918)" fill="#263238"/>
            <path id="Path_803" data-name="Path 803" d="M161.081,136.387a16.964,16.964,0,0,1,2.685,1.421c1.7.956,4.094,2.479,6.963,4.476a119.87,119.87,0,0,1,9.69,7.553,133.828,133.828,0,0,1,10.761,10.525,134.222,134.222,0,0,1,9.4,11.759,120.182,120.182,0,0,1,6.547,10.4c1.7,3.055,2.975,5.585,3.758,7.377a16.931,16.931,0,0,1,1.145,2.811,16.875,16.875,0,0,1-1.509-2.633c-.89-1.731-2.259-4.2-4.032-7.185s-4.022-6.471-6.691-10.211a148.079,148.079,0,0,0-9.39-11.619,148,148,0,0,0-10.619-10.5c-3.454-3.029-6.681-5.627-9.488-7.677s-5.116-3.672-6.749-4.73a17.033,17.033,0,0,1-2.469-1.765" transform="translate(161.225 136.504)" fill="#e8505b"/>
            <path id="Path_804" data-name="Path 804" d="M154.836,348.876h-1.7A17.937,17.937,0,0,1,135.2,330.94v-65.2a17.936,17.936,0,0,1,17.936-17.934h1.7Z" transform="translate(135.321 248.03)" fill="#263238"/>
            <path id="Path_805" data-name="Path 805" d="M291.478,348.876h-1.871V247.807h1.871a17.765,17.765,0,0,1,17.764,17.764v65.542a17.764,17.764,0,0,1-17.764,17.764" transform="translate(289.868 248.03)" fill="#263238"/>
            <path id="Path_806" data-name="Path 806" d="M413.1,458.024H170.679a28.25,28.25,0,0,1-28.251-28.251V266.194a28.251,28.251,0,0,1,28.251-28.251H413.1a28.251,28.251,0,0,1,28.251,28.251v163.58A28.25,28.25,0,0,1,413.1,458.024" transform="translate(142.556 238.157)" fill="#f2ef25"/>
            <path id="Path_807" data-name="Path 807" d="M270.4,249.632a68.505,68.505,0,0,0-68.5,68.5h137.01a68.505,68.505,0,0,0-68.5-68.5" transform="translate(202.078 249.857)" fill="#fff"/>
            <path id="Path_808" data-name="Path 808" d="M268.921,282.212c2.877-.03,5.484-.026,7.369.01a14.924,14.924,0,0,1,3.053.19,14.6,14.6,0,0,1-3.051.222c-1.885.056-4.49.086-7.369.086l-7.367-.064c-.942-.026-1.7-.046-2.233-.062a3.392,3.392,0,0,1-.818-.074,3.289,3.289,0,0,1,.818-.086c.528-.018,1.291-.048,2.233-.084l7.365-.138" transform="translate(258.737 282.446)" fill="#e0e0e0"/>
            <path id="Path_809" data-name="Path 809" d="M265.944,273.835c5.194-2.479,9.524-4.23,9.67-3.912s-3.99,2.481-9.246,4.836-9.58,4.1-9.668,3.91,4.052-2.357,9.244-4.834" transform="translate(256.93 270.13)" fill="#e0e0e0"/>
            <path id="Path_810" data-name="Path 810" d="M258.193,267.11c3.8-4.324,7.085-7.643,7.341-7.415s-2.691,3.854-6.585,8.1-7.175,7.557-7.339,7.411,2.787-3.77,6.583-8.092" transform="translate(251.831 259.918)" fill="#e0e0e0"/>
            <path id="Path_811" data-name="Path 811" d="M247.329,262.786c1.953-5.414,3.8-9.708,4.114-9.588s-1.095,4.57-3.159,9.944-3.906,9.662-4.114,9.584,1.207-4.53,3.159-9.941" transform="translate(244.369 253.423)" fill="#e0e0e0"/>
            <path id="Path_812" data-name="Path 812" d="M235.25,261.422c-.056-5.757.172-10.423.51-10.425s.564,4.668.508,10.425-.284,10.417-.51,10.417-.452-4.664-.508-10.417" transform="translate(235.454 251.223)" fill="#e0e0e0"/>
            <path id="Path_813" data-name="Path 813" d="M226.388,263.141c-2.063-5.374-3.478-9.826-3.159-9.944s2.161,4.174,4.114,9.588,3.368,9.864,3.157,9.942-2.049-4.216-4.112-9.586" transform="translate(223.385 253.422)" fill="#e0e0e0"/>
            <path id="Path_814" data-name="Path 814" d="M219.021,267.792c-3.894-4.242-6.839-7.866-6.583-8.1s3.544,3.087,7.343,7.413,6.743,7.946,6.581,8.094-3.452-3.173-7.341-7.411" transform="translate(212.614 259.919)" fill="#e0e0e0"/>
            <path id="Path_815" data-name="Path 815" d="M214.091,274.762c-5.254-2.353-9.392-4.518-9.246-4.836s4.478,1.433,9.674,3.912,9.332,4.64,9.242,4.834-4.42-1.559-9.67-3.91" transform="translate(205.026 270.132)" fill="#e0e0e0"/>
            <path id="Path_816" data-name="Path 816" d="M212.5,282.72c-2.879,0-5.484-.03-7.369-.086a14.624,14.624,0,0,1-3.051-.222,14.924,14.924,0,0,1,3.053-.19c1.887-.036,4.492-.04,7.369-.01,2.877.054,5.48.1,7.367.138l2.231.086a3.271,3.271,0,0,1,.82.084,3.421,3.421,0,0,1-.82.074c-.528.016-1.291.036-2.233.062l-7.367.064" transform="translate(202.26 282.446)" fill="#e0e0e0"/>
            <path id="Path_817" data-name="Path 817" d="M188.143,260.178a9.093,9.093,0,1,1-9.094-9.092,9.094,9.094,0,0,1,9.094,9.092" transform="translate(170.11 251.312)" fill="#fff"/>
            <path id="Path_818" data-name="Path 818" d="M188.143,273.879a9.093,9.093,0,1,1-9.094-9.092,9.094,9.094,0,0,1,9.094,9.092" transform="translate(170.11 265.026)" fill="#455a64"/>
            <path id="Path_819" data-name="Path 819" d="M358.7,385.732s-.026-.59-.04-1.7q-.015-1.711-.044-4.912c-.022-4.328-.054-10.647-.1-18.771-.05-16.257-.12-39.71-.208-68.619l.388.388-186.432.132h-.014l.522-.52c-.012,33.147-.022,64.947-.032,94l-.49-.49,133.89.236c16.5.056,29.607.1,38.627.134l10.325.06c1.157.014,2.043.024,2.677.03.6.01.926.03.926.03s-.282.02-.868.03c-.62.006-1.487.016-2.619.03l-10.225.06c-8.992.032-22.06.078-38.513.134l-134.22.236-.49,0v-.492c-.01-29.055-.02-60.855-.03-94v-.522h.534c71.89.052,137.466.1,186.432.134h.39l0,.388c-.088,29.009-.158,52.542-.208,68.857-.042,8.086-.074,14.376-.1,18.684q-.03,3.154-.044,4.838c-.012,1.086-.04,1.623-.04,1.623" transform="translate(171.884 291.47)" fill="#263238"/>
            <path id="Path_820" data-name="Path 820" d="M382.6,361.371H170.313a12.469,12.469,0,0,1-12.47-12.468v-1.182H395.072V348.9A12.468,12.468,0,0,1,382.6,361.371" transform="translate(157.985 348.034)" fill="#263238"/>
            <g id="Group_584" data-name="Group 584" transform="translate(510.592 592.529)" opacity="0.3">
              <g id="Group_583" data-name="Group 583">
                <g id="Group_582" data-name="Group 582" clip-path="url(#clip-path-9)">
                  <path id="Path_821" data-name="Path 821" d="M255.229,299.993a5.652,5.652,0,0,0,3.88,5.957,6.239,6.239,0,0,0,6.781-2.491,6.96,6.96,0,0,0,.092-7.327,6.916,6.916,0,0,1-1.565,4.688,5.114,5.114,0,0,1-4.51,1.773,4.072,4.072,0,0,1-3.393-3.281" transform="translate(-255.181 -296.131)"/>
                </g>
              </g>
            </g>
            <path id="Path_822" data-name="Path 822" d="M266.081,299.714a5.528,5.528,0,1,1-5.529-5.529,5.528,5.528,0,0,1,5.529,5.529" transform="translate(255.254 294.45)" fill="#e0e0e0"/>
            <path id="Path_823" data-name="Path 823" d="M266.342,299.938c-.088,0-.112-.492-.37-1.3a5.532,5.532,0,0,0-2.037-2.8,5.189,5.189,0,0,0-4.842-.64,5.064,5.064,0,0,0,0,9.484,5.188,5.188,0,0,0,4.842-.64,5.532,5.532,0,0,0,2.037-2.8c.258-.808.282-1.3.37-1.3.054,0,.174.5.024,1.4a5.512,5.512,0,0,1-1.985,3.289,5.864,5.864,0,0,1-5.615.957,5.981,5.981,0,0,1,0-11.289,5.865,5.865,0,0,1,5.615.956,5.512,5.512,0,0,1,1.985,3.289c.15.9.03,1.4-.024,1.4" transform="translate(254.992 294.226)" fill="#263238"/>
            <path id="Path_824" data-name="Path 824" d="M261.4,295.81c.1.282-1.213.964-2.421,2.237-1.233,1.253-1.867,2.587-2.155,2.5-.27-.052-.018-1.759,1.407-3.22s3.107-1.781,3.169-1.513" transform="translate(256.958 295.989)" fill="#263238"/>
            <path id="Path_825" data-name="Path 825" d="M261.612,299.6c-.25.164-1.173-.846-2.531-1.751-1.345-.924-2.627-1.4-2.567-1.695.034-.274,1.6-.222,3.151.832s2.189,2.479,1.947,2.613" transform="translate(256.743 296.284)" fill="#263238"/>
            <g id="Group_587" data-name="Group 587" transform="translate(513.187 660.943)" opacity="0.3">
              <g id="Group_586" data-name="Group 586">
                <g id="Group_585" data-name="Group 585" clip-path="url(#clip-path-9)">
                  <path id="Path_826" data-name="Path 826" d="M256.526,334.185a5.652,5.652,0,0,0,3.88,5.957,6.239,6.239,0,0,0,6.781-2.491,6.964,6.964,0,0,0,.094-7.327,6.928,6.928,0,0,1-1.567,4.688,5.114,5.114,0,0,1-4.51,1.773,4.072,4.072,0,0,1-3.393-3.282" transform="translate(-256.478 -330.323)"/>
                </g>
              </g>
            </g>
            <path id="Path_827" data-name="Path 827" d="M267.378,333.906a5.528,5.528,0,1,1-5.528-5.529,5.528,5.528,0,0,1,5.528,5.529" transform="translate(256.552 328.673)" fill="#e0e0e0"/>
            <path id="Path_828" data-name="Path 828" d="M267.641,334.13c-.09,0-.114-.492-.372-1.3a5.538,5.538,0,0,0-2.035-2.8,5.194,5.194,0,0,0-4.844-.64,5.064,5.064,0,0,0,0,9.484,5.192,5.192,0,0,0,4.844-.64,5.538,5.538,0,0,0,2.035-2.8c.258-.808.282-1.3.372-1.3.052,0,.172.494.022,1.4a5.512,5.512,0,0,1-1.985,3.289,5.865,5.865,0,0,1-5.615.956,5.981,5.981,0,0,1,0-11.289,5.864,5.864,0,0,1,5.615.956,5.512,5.512,0,0,1,1.985,3.29c.15.9.03,1.4-.022,1.4" transform="translate(256.291 328.449)" fill="#263238"/>
            <path id="Path_829" data-name="Path 829" d="M262.694,330c.1.282-1.212.964-2.421,2.237-1.233,1.251-1.867,2.587-2.153,2.5-.272-.052-.02-1.759,1.4-3.219s3.107-1.783,3.169-1.513" transform="translate(258.256 330.211)" fill="#263238"/>
            <path id="Path_830" data-name="Path 830" d="M262.909,333.8c-.25.164-1.172-.846-2.531-1.751-1.345-.924-2.627-1.4-2.567-1.695.034-.274,1.6-.222,3.151.832s2.189,2.479,1.947,2.613" transform="translate(258.041 330.507)" fill="#263238"/>
            <g id="Group_590" data-name="Group 590" transform="translate(352.355 592.445)" opacity="0.3">
              <g id="Group_589" data-name="Group 589">
                <g id="Group_588" data-name="Group 588" clip-path="url(#clip-path-11)">
                  <path id="Path_831" data-name="Path 831" d="M176.146,299.952a5.648,5.648,0,0,0,3.88,5.957,6.233,6.233,0,0,0,6.779-2.491,6.964,6.964,0,0,0,.1-7.327,6.938,6.938,0,0,1-1.567,4.688,5.118,5.118,0,0,1-4.51,1.773,4.07,4.07,0,0,1-3.393-3.282" transform="translate(-176.098 -296.088)"/>
                </g>
              </g>
            </g>
            <path id="Path_832" data-name="Path 832" d="M187,299.673a5.528,5.528,0,1,1-5.528-5.529A5.528,5.528,0,0,1,187,299.673" transform="translate(176.1 294.409)" fill="#e0e0e0"/>
            <path id="Path_833" data-name="Path 833" d="M187.259,299.9c-.088,0-.112-.492-.37-1.3a5.532,5.532,0,0,0-2.037-2.8,5.189,5.189,0,0,0-4.842-.64,5.064,5.064,0,0,0,0,9.484,5.194,5.194,0,0,0,4.842-.64,5.532,5.532,0,0,0,2.037-2.8c.258-.808.282-1.3.37-1.3.054,0,.174.494.024,1.4a5.512,5.512,0,0,1-1.985,3.289,5.864,5.864,0,0,1-5.615.956,5.981,5.981,0,0,1,0-11.289,5.865,5.865,0,0,1,5.615.956,5.512,5.512,0,0,1,1.985,3.29c.15.9.03,1.4-.024,1.4" transform="translate(175.838 294.185)" fill="#263238"/>
            <path id="Path_834" data-name="Path 834" d="M182.314,295.768c.1.282-1.213.962-2.421,2.237-1.233,1.251-1.867,2.587-2.153,2.5-.272-.052-.02-1.759,1.4-3.219s3.107-1.783,3.169-1.513" transform="translate(177.804 295.947)" fill="#263238"/>
            <path id="Path_835" data-name="Path 835" d="M182.529,299.562c-.25.164-1.173-.846-2.531-1.751-1.345-.924-2.627-1.4-2.567-1.695.034-.274,1.6-.222,3.151.832s2.189,2.479,1.947,2.613" transform="translate(177.589 296.242)" fill="#263238"/>
            <g id="Group_593" data-name="Group 593" transform="translate(351.18 660.265)" opacity="0.3">
              <g id="Group_592" data-name="Group 592">
                <g id="Group_591" data-name="Group 591" clip-path="url(#clip-path-9)">
                  <path id="Path_836" data-name="Path 836" d="M175.559,333.846a5.652,5.652,0,0,0,3.88,5.957,6.236,6.236,0,0,0,6.781-2.491,6.964,6.964,0,0,0,.094-7.327,6.928,6.928,0,0,1-1.567,4.688,5.114,5.114,0,0,1-4.51,1.773,4.072,4.072,0,0,1-3.394-3.282" transform="translate(-175.511 -329.984)"/>
                </g>
              </g>
            </g>
            <path id="Path_837" data-name="Path 837" d="M186.411,333.568a5.528,5.528,0,1,1-5.529-5.529,5.528,5.528,0,0,1,5.529,5.529" transform="translate(175.512 328.335)" fill="#e0e0e0"/>
            <path id="Path_838" data-name="Path 838" d="M186.672,333.792c-.088,0-.112-.492-.37-1.3a5.532,5.532,0,0,0-2.037-2.8,5.189,5.189,0,0,0-4.842-.64,5.064,5.064,0,0,0,0,9.484,5.188,5.188,0,0,0,4.842-.64,5.532,5.532,0,0,0,2.037-2.8c.258-.808.282-1.3.37-1.3.054,0,.174.494.024,1.4a5.511,5.511,0,0,1-1.985,3.289,5.864,5.864,0,0,1-5.615.956,5.981,5.981,0,0,1,0-11.289,5.864,5.864,0,0,1,5.615.956,5.512,5.512,0,0,1,1.985,3.289c.15.9.03,1.4-.024,1.4" transform="translate(175.251 328.11)" fill="#263238"/>
            <path id="Path_839" data-name="Path 839" d="M181.727,329.663c.1.282-1.213.964-2.421,2.237-1.233,1.251-1.867,2.587-2.153,2.5-.272-.052-.02-1.759,1.4-3.219s3.109-1.783,3.171-1.513" transform="translate(177.216 329.872)" fill="#263238"/>
            <path id="Path_840" data-name="Path 840" d="M181.942,333.457c-.25.164-1.173-.846-2.531-1.751-1.345-.924-2.627-1.4-2.567-1.695.034-.276,1.6-.222,3.151.832s2.189,2.479,1.947,2.613" transform="translate(177.001 330.167)" fill="#263238"/>
            <g id="Group_596" data-name="Group 596" transform="translate(344.135 677.201)" opacity="0.3">
              <g id="Group_595" data-name="Group 595">
                <g id="Group_594" data-name="Group 594" clip-path="url(#clip-path-13)">
                  <path id="Path_841" data-name="Path 841" d="M171.99,338.956c21.654,4.7,46.935,4.882,70.332,3.746,11.247-.546,23.595-1.255,32.587,5.524,1.977,1.489,4.284,3.42,6.6,2.561,3.374-1.253,3.5-7.413,7.093-7.535,1.8-.062,3.169,1.657,3.754,3.36s.722,3.582,1.645,5.128,3.105,2.6,4.536,1.5c2.279-1.749-.35-5.485.514-8.226.894-2.841,4.93-3.069,7.69-1.943s5.452,3.071,8.4,2.637c2.115-.314,3.83-1.8,5.655-2.911,5.266-3.205,11.761-3.4,17.924-3.51,6.5-.11,13.21-.73,19.715-.842Z" transform="translate(-171.99 -338.448)"/>
                </g>
              </g>
            </g>
            <path id="Path_842" data-name="Path 842" d="M292.791,303.425a4.313,4.313,0,0,1-1.019.36,22.906,22.906,0,0,0-2.9.966,44.612,44.612,0,0,0-9.758,5.534c-3.9,2.723-8.214,6.481-13.67,9.809a31.724,31.724,0,0,1-9.26,3.848c-3.434.852-7.081.69-10.691.8-7.293-.08-13.69,2.979-19.215,5.927-5.571,2.977-10.569,5.687-14.513,8.35a52.692,52.692,0,0,0-8.7,7.117c-1.843,1.919-2.721,3.113-2.8,3.053a4.122,4.122,0,0,1,.574-.912,27.174,27.174,0,0,1,1.929-2.417,47.7,47.7,0,0,1,8.578-7.449,155.8,155.8,0,0,1,14.477-8.588,65.717,65.717,0,0,1,9.05-4.218,31.505,31.505,0,0,1,10.589-1.9c3.66-.1,7.221.054,10.5-.754a31.15,31.15,0,0,0,8.992-3.676c5.378-3.217,9.748-6.917,13.738-9.586a41.024,41.024,0,0,1,10.04-5.31,17.679,17.679,0,0,1,2.991-.792,4.109,4.109,0,0,1,1.066-.154" transform="translate(200.445 303.688)" fill="#263238"/>
            <path id="Path_843" data-name="Path 843" d="M241.245,318.746c-.022.126-2.259-.116-5.807-.892a88.239,88.239,0,0,1-26.244-10.537c-3.1-1.893-4.884-3.264-4.814-3.37.088-.134,2.009,1.014,5.18,2.731a119.352,119.352,0,0,0,26.054,10.459c3.478.954,5.661,1.453,5.631,1.609" transform="translate(204.562 304.211)" fill="#263238"/>
            <path id="Path_844" data-name="Path 844" d="M237.843,286.334c1.525-.81,46.487-15.275,46.487-15.275l-42.973,24.093Z" transform="translate(238.057 271.303)" fill="#e8505b"/>
            <path id="Path_845" data-name="Path 845" d="M243.1,276.272a15.2,15.2,0,0,0-15.2,15.2h30.4a15.2,15.2,0,0,0-15.2-15.2" transform="translate(228.107 276.521)" fill="#263238"/>
            <path id="Path_846" data-name="Path 846" d="M159.346,456.911c-.288,0-.52-48.868-.52-109.137,0-60.287.232-109.145.52-109.145s.52,48.858.52,109.145c0,60.269-.232,109.137-.52,109.137" transform="translate(158.969 238.844)" fill="#263238"/>
            <path id="Path_847" data-name="Path 847" d="M278.2,456.911c-.288,0-.52-48.868-.52-109.137,0-60.287.232-109.145.52-109.145s.52,48.858.52,109.145c0,60.269-.232,109.137-.52,109.137" transform="translate(277.925 238.844)" fill="#263238"/>
            <path id="Path_848" data-name="Path 848" d="M157.6,253.419a2.334,2.334,0,1,1-2.333-2.333,2.333,2.333,0,0,1,2.333,2.333" transform="translate(153.068 251.312)" fill="#263238"/>
            <path id="Path_849" data-name="Path 849" d="M157.6,275.307a2.334,2.334,0,1,1-2.333-2.333,2.333,2.333,0,0,1,2.333,2.333" transform="translate(153.068 273.22)" fill="#263238"/>
            <path id="Path_850" data-name="Path 850" d="M157.6,297.194a2.334,2.334,0,1,1-2.333-2.333,2.333,2.333,0,0,1,2.333,2.333" transform="translate(153.068 295.127)" fill="#263238"/>
            <path id="Path_851" data-name="Path 851" d="M157.6,319.081a2.334,2.334,0,1,1-2.333-2.333,2.333,2.333,0,0,1,2.333,2.333" transform="translate(153.068 317.034)" fill="#263238"/>
            <path id="Path_852" data-name="Path 852" d="M157.6,340.968a2.334,2.334,0,1,1-2.333-2.333,2.333,2.333,0,0,1,2.333,2.333" transform="translate(153.068 338.94)" fill="#263238"/>
            <path id="Path_853" data-name="Path 853" d="M287.546,253.419a2.334,2.334,0,1,1-2.333-2.333,2.333,2.333,0,0,1,2.333,2.333" transform="translate(283.133 251.312)" fill="#263238"/>
            <path id="Path_854" data-name="Path 854" d="M287.546,275.307a2.334,2.334,0,1,1-2.333-2.333,2.333,2.333,0,0,1,2.333,2.333" transform="translate(283.133 273.22)" fill="#263238"/>
            <path id="Path_855" data-name="Path 855" d="M287.546,297.194a2.334,2.334,0,1,1-2.333-2.333,2.333,2.333,0,0,1,2.333,2.333" transform="translate(283.133 295.127)" fill="#263238"/>
            <path id="Path_856" data-name="Path 856" d="M287.546,319.081a2.334,2.334,0,1,1-2.333-2.333,2.333,2.333,0,0,1,2.333,2.333" transform="translate(283.133 317.034)" fill="#263238"/>
            <path id="Path_857" data-name="Path 857" d="M287.546,340.968a2.334,2.334,0,1,1-2.333-2.333,2.333,2.333,0,0,1,2.333,2.333" transform="translate(283.133 338.94)" fill="#263238"/>
            <rect id="Rectangle_4571" data-name="Rectangle 4571" width="102.246" height="24.099" transform="translate(376.252 452.002)" fill="#455a64"/>
            <path id="Path_858" data-name="Path 858" d="M191.988,249.576c-.288,0-.522-5.206-.522-11.627s.234-11.629.522-11.629.52,5.206.52,11.629-.232,11.627-.52,11.627" transform="translate(191.639 226.524)" fill="#263238"/>
            <path id="Path_859" data-name="Path 859" d="M197.233,249.576c-.288,0-.52-5.206-.52-11.627s.232-11.629.52-11.629.52,5.206.52,11.629-.232,11.627-.52,11.627" transform="translate(196.89 226.524)" fill="#263238"/>
            <path id="Path_860" data-name="Path 860" d="M202.48,249.576c-.288,0-.52-5.206-.52-11.627s.232-11.629.52-11.629.52,5.206.52,11.629-.232,11.627-.52,11.627" transform="translate(202.142 226.524)" fill="#263238"/>
            <path id="Path_861" data-name="Path 861" d="M207.726,249.576c-.288,0-.52-5.206-.52-11.627s.232-11.629.52-11.629.52,5.206.52,11.629-.232,11.627-.52,11.627" transform="translate(207.393 226.524)" fill="#263238"/>
            <path id="Path_862" data-name="Path 862" d="M212.973,249.576c-.288,0-.52-5.206-.52-11.627s.232-11.629.52-11.629.52,5.206.52,11.629-.232,11.627-.52,11.627" transform="translate(212.645 226.524)" fill="#263238"/>
            <path id="Path_863" data-name="Path 863" d="M218.221,249.576c-.29,0-.522-5.206-.522-11.627s.232-11.629.522-11.629.518,5.206.518,11.629-.23,11.627-.518,11.627" transform="translate(217.895 226.524)" fill="#263238"/>
            <path id="Path_864" data-name="Path 864" d="M223.466,249.576c-.288,0-.52-5.206-.52-11.627s.232-11.629.52-11.629.52,5.206.52,11.629-.232,11.627-.52,11.627" transform="translate(223.147 226.524)" fill="#263238"/>
            <path id="Path_865" data-name="Path 865" d="M228.713,249.576c-.288,0-.52-5.206-.52-11.627s.232-11.629.52-11.629.52,5.206.52,11.629-.232,11.627-.52,11.627" transform="translate(228.399 226.524)" fill="#263238"/>
            <path id="Path_866" data-name="Path 866" d="M233.959,249.576c-.288,0-.52-5.206-.52-11.627s.232-11.629.52-11.629.52,5.206.52,11.629-.232,11.627-.52,11.627" transform="translate(233.649 226.524)" fill="#263238"/>
            <g id="Group_599" data-name="Group 599" transform="translate(599.094 528.328)" opacity="0.3">
              <g id="Group_598" data-name="Group 598">
                <g id="Group_597" data-name="Group 597" clip-path="url(#clip-path-14)">
                  <path id="Path_867" data-name="Path 867" d="M299.429,264.045c2.473,12.534,4.772,24.327,7.243,36.861a53.991,53.991,0,0,1-7.243-.022c-.058-12,.058-24.837,0-36.839" transform="translate(-299.411 -264.045)"/>
                </g>
              </g>
            </g>
            <path id="Path_868" data-name="Path 868" d="M147.143,249.68c.288,0-.018,37.369-.682,83.446-.664,46.093-1.437,83.442-1.725,83.438s.018-37.361.682-83.454c.664-46.077,1.437-83.434,1.725-83.43" transform="translate(144.758 249.905)" fill="#fff"/>
            <path id="Path_869" data-name="Path 869" d="M167.886,377.232c-.288,0-.52-18.606-.52-41.555s.232-41.559.52-41.559.52,18.6.52,41.559-.232,41.555-.52,41.555" transform="translate(167.517 294.384)" fill="#fff"/>
            <path id="Path_870" data-name="Path 870" d="M368.324,241.57c0,.288-45.869.52-102.438.52-56.588,0-102.446-.232-102.446-.52s45.859-.52,102.446-.52c56.569,0,102.438.232,102.438.52" transform="translate(163.587 241.267)" fill="#fff"/>
          </g>
        </g>
      </g>
    </g>
  </g>
</svg>
