<svg xmlns="http://www.w3.org/2000/svg" width="27.211" height="29.875" viewBox="0 0 27.211 29.875">
  <g id="Autor_icon_" data-name="Autor icon " transform="translate(-390 -610)">
    <path id="Path_1067" data-name="Path 1067" d="M9,11.353A3.374,3.374,0,0,1,12.395,8H29.679a3.374,3.374,0,0,1,3.395,3.353v5.21H31.222v-5.21a1.534,1.534,0,0,0-1.543-1.524H12.395a1.534,1.534,0,0,0-1.543,1.524V34.522a1.534,1.534,0,0,0,1.543,1.524H29.679a1.534,1.534,0,0,0,1.543-1.524V24.212l1.852-.637V34.522a3.374,3.374,0,0,1-3.395,3.353H12.395A3.374,3.374,0,0,1,9,34.522Z" transform="translate(381 602)" fill-rule="evenodd"/>
    <path id="Path_1068" data-name="Path 1068" d="M12.967,21.949a.92.92,0,0,1,.926-.915h8.642a.915.915,0,1,1,0,1.829H13.893A.92.92,0,0,1,12.967,21.949Z" transform="translate(380.737 601.135)" fill-rule="evenodd"/>
    <path id="Path_1069" data-name="Path 1069" d="M12.967,15.282a.92.92,0,0,1,.926-.915H25.024a.915.915,0,1,1,0,1.829H13.893A.92.92,0,0,1,12.967,15.282Z" transform="translate(380.737 601.577)" fill-rule="evenodd"/>
    <path id="Path_1070" data-name="Path 1070" d="M12.967,28.506a.92.92,0,0,1,.926-.915h4.938a.915.915,0,1,1,0,1.829H13.893A.92.92,0,0,1,12.967,28.506Z" transform="translate(380.737 600.699)" fill-rule="evenodd"/>
    <path id="Path_1071" data-name="Path 1071" d="M22.592,31.331a1.886,1.886,0,0,1-.354-2.634L30.96,17.245a3.387,3.387,0,0,1,4.765-.625,3.427,3.427,0,0,1,.643,4.787L27.647,32.859a1.863,1.863,0,0,1-2.622.344Zm1.107-1.51a.034.034,0,0,0,.006.048l2.433,1.872a.034.034,0,0,0,.048-.006l8.722-11.452a1.576,1.576,0,0,0-.3-2.2,1.557,1.557,0,0,0-2.191.287Z" transform="translate(380.146 601.475)" fill-rule="evenodd"/>
    <path id="Path_1072" data-name="Path 1072" d="M21.927,30.129l5.263,4.05-5.526,2.238a.479.479,0,0,1-.651-.521Z" transform="translate(380.203 600.531)"/>
  </g>
</svg>
