<svg xmlns="http://www.w3.org/2000/svg" width="27.974" height="27.974" viewBox="0 0 27.974 27.974">
  <g id="Back_icon_" data-name="Back icon " transform="translate(-11 -12)">
    <path id="Path_1074" data-name="Path 1074" d="M34.491,12H15.483A4.485,4.485,0,0,0,11,16.483V35.491a4.485,4.485,0,0,0,4.483,4.483H34.491a4.485,4.485,0,0,0,4.483-4.483V16.483A4.485,4.485,0,0,0,34.491,12ZM30.726,26.346a.719.719,0,0,1-.717.717H22.477a.293.293,0,0,0-.215.5l3.8,3.873a.71.71,0,0,1-1,1l-5.595-5.595a.693.693,0,0,1,0-1l5.595-5.595a.71.71,0,1,1,1,1l-3.838,3.873a.293.293,0,0,0,.215.5h7.532a.728.728,0,0,1,.753.717Z"/>
  </g>
</svg>
