<svg xmlns="http://www.w3.org/2000/svg" width="26" height="30" viewBox="0 0 26 30">
  <g id="trash_1_" data-name="trash (1)" transform="translate(-1.5)">
    <path id="Path_596" data-name="Path 596" d="M6.1,5.5A1.1,1.1,0,0,1,7.2,6.6V19.8a1.1,1.1,0,0,1-2.2,0V6.6A1.1,1.1,0,0,1,6.1,5.5Zm5.5,0a1.1,1.1,0,0,1,1.1,1.1V19.8a1.1,1.1,0,0,1-2.2,0V6.6A1.1,1.1,0,0,1,11.6,5.5Zm6.6,1.1a1.1,1.1,0,0,0-2.2,0V19.8a1.1,1.1,0,0,0,2.2,0Z" transform="translate(2.9 4.538)"/>
    <path id="Path_597" data-name="Path 597" d="M27.5,6a2,2,0,0,1-2,2h-1V26a4,4,0,0,1-4,4H8.5a4,4,0,0,1-4-4V8h-1a2,2,0,0,1-2-2V4a2,2,0,0,1,2-2h7a2,2,0,0,1,2-2h4a2,2,0,0,1,2,2h7a2,2,0,0,1,2,2ZM6.736,8,6.5,8.118V26a2,2,0,0,0,2,2h12a2,2,0,0,0,2-2V8.118L22.264,8ZM3.5,6h22V4H3.5Z"/>
  </g>
</svg>
