<svg xmlns="http://www.w3.org/2000/svg" width="32.26" height="32.26" viewBox="0 0 32.26 32.26">
  <g id="exclamation-diamond" transform="translate(0)">
    <path id="Path_1076" data-name="Path 1076" d="M14.013.877a2.994,2.994,0,0,1,4.234,0L31.383,14.015a2.989,2.989,0,0,1,0,4.23L18.247,31.383a2.989,2.989,0,0,1-4.23,0L.877,18.247a2.988,2.988,0,0,1,0-4.23Zm2.823,1.411a1,1,0,0,0-1.411,0L2.287,15.424a1,1,0,0,0,0,1.411L15.424,29.973a1,1,0,0,0,1.411,0L29.973,16.835a1,1,0,0,0,0-1.411L16.836,2.286Z" transform="translate(0 0)"/>
    <path id="Path_1077" data-name="Path 1077" d="M7,18.119a2.016,2.016,0,1,1,2.016,2.016A2.016,2.016,0,0,1,7,18.119ZM7.2,6.011a1.825,1.825,0,1,1,3.629,0l-.706,7.071a1.113,1.113,0,0,1-2.218,0Z" transform="translate(7.116 4.06)"/>
  </g>
</svg>
