<svg id="Group_132" data-name="Group 132" xmlns="http://www.w3.org/2000/svg" xmlns:xlink="http://www.w3.org/1999/xlink" width="26.205" height="30" viewBox="0 0 26.205 30">
  <defs>
    <clipPath id="clip-path">
      <rect id="Rectangle_137" data-name="Rectangle 137" width="26.205" height="30"/>
    </clipPath>
  </defs>
  <g id="Group_131" data-name="Group 131" clip-path="url(#clip-path)">
    <path id="Path_30" data-name="Path 30" d="M12.176,15.921c-1.163,0-2.275.038-3.382-.014a8.618,8.618,0,0,1-2.024-.323A4.41,4.41,0,0,1,3.8,11.848c-.056-.744-.07-1.491-.077-2.237,0-.269-.051-.413-.345-.495A4.655,4.655,0,0,1,.73,2.09,4.751,4.751,0,0,1,5.76.14,4.454,4.454,0,0,1,9.3,4.448,4.418,4.418,0,0,1,6.194,9.024c-.483.156-.706.343-.641.872.063.506,0,1.027.071,1.531a2.776,2.776,0,0,0,2.954,2.637q4.529.04,9.058,0a2.878,2.878,0,0,0,3-3.027c.015-.483-.015-.968.009-1.451.015-.3-.118-.4-.381-.473a4.672,4.672,0,0,1-2.091-7.72A4.983,4.983,0,0,1,23.546.427a4.73,4.73,0,0,1,1.678,7.147,4.127,4.127,0,0,1-2.265,1.5.577.577,0,0,0-.505.656,15.817,15.817,0,0,1-.221,2.831,4.284,4.284,0,0,1-3.886,3.283c-1.241.073-2.488.055-3.733.076-.174,0-.347,0-.547,0a3.54,3.54,0,0,0-.042.372c0,1.363.005,2.726-.008,4.089a.425.425,0,0,0,.367.49,4.655,4.655,0,1,1-3.967,8.271A4.44,4.44,0,0,1,8.538,24.5a4.307,4.307,0,0,1,3.188-3.6.543.543,0,0,0,.458-.634c-.02-1.421-.008-2.842-.008-4.344M4.669,1.852A2.8,2.8,0,0,0,1.848,4.664a2.718,2.718,0,0,0,2.819,2.8A2.677,2.677,0,0,0,7.458,4.646,2.723,2.723,0,0,0,4.669,1.852m5.62,23.46a2.747,2.747,0,0,0,2.819,2.809,2.68,2.68,0,0,0,2.8-2.812,2.723,2.723,0,0,0-2.781-2.8,2.839,2.839,0,0,0-2.836,2.808M21.6,1.852a2.854,2.854,0,0,0-2.863,2.787,2.818,2.818,0,0,0,2.8,2.839,2.75,2.75,0,0,0,2.83-2.8A2.8,2.8,0,0,0,21.6,1.852" transform="translate(0 -0.001)"/>
  </g>
</svg>
