<svg id="Group_38" data-name="Group 38" xmlns="http://www.w3.org/2000/svg" xmlns:xlink="http://www.w3.org/1999/xlink" width="29.996" height="30" viewBox="0 0 29.996 30">
  <defs>
    <clipPath id="clip-path">
      <rect id="Rectangle_60" data-name="Rectangle 60" width="29.996" height="30" fill="none"/>
    </clipPath>
  </defs>
  <g id="Group_37" data-name="Group 37" clip-path="url(#clip-path)">
    <path id="Path_11" data-name="Path 11" d="M14,0h1.992c.346.044.693.08,1.038.132a14.748,14.748,0,0,1,9.685,5.532,14.5,14.5,0,0,1,3.133,11.369,14.443,14.443,0,0,1-5.615,9.756,14.572,14.572,0,0,1-12.313,2.881A14.475,14.475,0,0,1,3.91,25.081,14.689,14.689,0,0,1,.174,17.261c-.065-.422-.116-.846-.174-1.27V14c.045-.356.084-.713.136-1.067A15.05,15.05,0,0,1,12.733.174C13.154.107,13.577.058,14,0m.994,27.251A12.256,12.256,0,1,0,2.74,14.987,12.271,12.271,0,0,0,14.994,27.251" fill="#1a1818"/>
    <path id="Path_12" data-name="Path 12" d="M119.418,116.917c0-1.327-.005-2.654,0-3.981a1.363,1.363,0,0,1,2.71-.288c.011.116.018.234.019.35q0,3.908,0,7.816a1.382,1.382,0,0,1-.923,1.466,1.325,1.325,0,0,1-1.784-1.178c-.036-1.394-.009-2.79-.009-4.185h-.014" transform="translate(-105.788 -98.728)" fill="#1a1818"/>
    <path id="Path_13" data-name="Path 13" d="M119.129,57.568a1.815,1.815,0,1,1-1.814-1.825,1.831,1.831,0,0,1,1.814,1.825" transform="translate(-102.319 -49.382)" fill="#1a1818"/>
  </g>
</svg>
