<svg id="Group_217" data-name="Group 217" xmlns="http://www.w3.org/2000/svg" xmlns:xlink="http://www.w3.org/1999/xlink" width="30" height="29.921" viewBox="0 0 30 29.921">
  <defs>
    <clipPath id="clip-path">
      <rect id="Rectangle_140" data-name="Rectangle 140" width="30" height="29.921"/>
    </clipPath>
  </defs>
  <g id="Group_137" data-name="Group 137" clip-path="url(#clip-path)">
    <path id="Path_34" data-name="Path 34" d="M7.226,16.031c-2.037,0-4.075-.009-6.112.005A1.019,1.019,0,0,1,0,15.03a1,1,0,0,1,.922-1.172,6.193,6.193,0,0,1,.755-.025l11.726,0c.458,0,.513-.051.515-.526,0-1.224,0-2.449,0-3.673q0-4.074,0-8.148c0-.123,0-.246-.01-.369a1.017,1.017,0,0,1,1.262-1.1,1.082,1.082,0,0,1,.965,1.136c.026.362.005.727.006,1.09q0,5.534,0,11.067c0,.609.081.522.526.522l11.581,0c.22,0,.44-.012.659,0a1.079,1.079,0,0,1,1.056.873,1.257,1.257,0,0,1-.085.8.908.908,0,0,1-.872.525c-.257.005-.515,0-.772,0H17c-.2,0-.4,0-.6.008a.2.2,0,0,0-.23.2c-.012.122-.026.244-.026.366q0,5.886-.005,11.773a3.1,3.1,0,0,1-.121.85,1.1,1.1,0,0,1-2.117-.493q.016-3.809.02-7.618,0-2.277,0-4.555a1.254,1.254,0,0,0-.057-.362.224.224,0,0,0-.141-.128,1.63,1.63,0,0,0-.366-.035q-3.064,0-6.128,0Z" transform="translate(0 0)"/>
  </g>
</svg>
