<svg xmlns="http://www.w3.org/2000/svg" width="29" height="25" viewBox="0 0 29 25">
  <g id="PUBLISH_ICON_" data-name="PUBLISH ICON " transform="translate(-46.5 -508.5)">
    <rect id="Rectangle_5151" data-name="Rectangle 5151" width="24" height="4" transform="translate(49 511)"/>
    <path id="Path_1073" data-name="Path 1073" d="M156,133a3,3,0,0,0-3-3H131a3,3,0,0,0-3,3v18a3,3,0,0,0,3,3h22a3,3,0,0,0,3-3Zm-13,11.414.414.414a1,1,0,0,0,1.414-1.414l-2.121-2.121a1,1,0,0,0-1.414,0l-2.121,2.121a1,1,0,0,0,1.414,1.414l.414-.414V148a1,1,0,0,0,2,0ZM154,136v-3a1,1,0,0,0-1-1H131a1,1,0,0,0-1,1v3Zm-6-3a1,1,0,1,0,1,1A1,1,0,0,0,148,133Zm3,2h1a1,1,0,0,0,0-2h-1a1,1,0,0,0,0,2Z" transform="translate(-81 379)" fill="none" stroke="#000" stroke-width="1" fill-rule="evenodd"/>
    <g id="Ellipse_374" data-name="Ellipse 374" transform="translate(66 512)" fill="#fff" stroke="#fff" stroke-width="0.5">
      <circle cx="1" cy="1" r="1" stroke="none"/>
      <circle cx="1" cy="1" r="0.75" fill="none"/>
    </g>
    <rect id="Rectangle_5152" data-name="Rectangle 5152" width="3" height="2" rx="1" transform="translate(69 512)" fill="#fff"/>
  </g>
</svg>
