<svg id="file-earmark-arrow-up" xmlns="http://www.w3.org/2000/svg" width="22.5" height="30" viewBox="0 0 22.5 30">
  <path id="Path_60" data-name="Path 60" d="M10.282,14.766a.8.8,0,0,1-1.594,0V8.721L6.861,10.549A.8.8,0,0,1,5.733,9.421L8.921,6.233a.8.8,0,0,1,1.128,0l3.188,3.187a.8.8,0,0,1-1.128,1.128L10.282,8.721Z" transform="translate(1.765 6.262)"/>
  <path id="Path_61" data-name="Path 61" d="M24.5,26.25V8.438L16.063,0H5.75A3.75,3.75,0,0,0,2,3.75v22.5A3.75,3.75,0,0,0,5.75,30h15A3.75,3.75,0,0,0,24.5,26.25ZM16.063,5.625a2.813,2.813,0,0,0,2.812,2.813h3.75V26.25a1.875,1.875,0,0,1-1.875,1.875h-15A1.875,1.875,0,0,1,3.875,26.25V3.75A1.875,1.875,0,0,1,5.75,1.875H16.063Z" transform="translate(-2)"/>
</svg>
