<svg id="Group_19" data-name="Group 19" xmlns="http://www.w3.org/2000/svg" xmlns:xlink="http://www.w3.org/1999/xlink" width="30" height="30.001" viewBox="0 0 30 30.001">
  <defs>
    <clipPath id="clip-path">
      <rect id="Rectangle_40" data-name="Rectangle 40" width="30" height="30.001"/>
    </clipPath>
  </defs>
  <g id="Group_18" data-name="Group 18" clip-path="url(#clip-path)">
    <path id="Path_4" data-name="Path 4" d="M15.016,30q-6.145,0-12.29,0A2.568,2.568,0,0,1,0,27.318q0-2.868,0-5.736Q0,12.16,0,2.738A2.683,2.683,0,0,1,.6.914,2.627,2.627,0,0,1,2.725,0Q11.6.007,20.478,0c1.505,0,1.249-.091,2.3.958,2.21,2.206,4.409,4.423,6.632,6.616a1.9,1.9,0,0,1,.582,1.414q.016,9.2,0,18.408A2.516,2.516,0,0,1,27.306,30q-5.3,0-10.6,0H15.016M6.252,27.5v-.344c0-2.767,0-5.534,0-8.3a2.486,2.486,0,0,1,2.593-2.6q6.158-.008,12.315,0a3.128,3.128,0,0,1,.754.092,2.544,2.544,0,0,1,1.838,2.538c-.024,2.758-.007,5.516-.007,8.274v.327H27.5a.993.993,0,0,0,.012-.1q0-8.929,0-17.859a.441.441,0,0,0-.124-.277q-2.968-2.98-5.945-5.95c-.047-.047-.1-.084-.2-.157V3.49q0,3.154,0,6.308a3.44,3.44,0,0,1-.05.706,2.519,2.519,0,0,1-2.553,2.03q-3.632.008-7.264,0a3.125,3.125,0,0,1-.675-.076A2.551,2.551,0,0,1,8.753,9.887c.023-2.339.006-4.678.006-7.018V2.55H2.546V27.5Zm2.533-.048h12.43V18.778H8.785Zm9.968-24.9H11.294V9.993h7.459Z" transform="translate(0 0)"/>
  </g>
</svg>
