<svg xmlns="http://www.w3.org/2000/svg" xmlns:xlink="http://www.w3.org/1999/xlink" width="30.624" height="26.371" viewBox="0 0 30.624 26.371">
  <defs>
    <clipPath id="clip-path">
      <rect id="Rectangle_40" data-name="Rectangle 40" width="12.581" height="12.581" fill="#fff"/>
    </clipPath>
  </defs>
  <g id="Save_portafolio_icon_" data-name="Save portafolio icon " transform="translate(-613 -150.875)">
    <g id="Group_763" data-name="Group 763" transform="translate(613 150.875)">
      <g id="Group_762" data-name="Group 762" transform="translate(0 0)">
        <path id="Path_1075" data-name="Path 1075" d="M16.552,19h5.955a2.552,2.552,0,0,1,2.042,1.021l1.021,1.361h0A2.552,2.552,0,0,0,27.611,22.4H42.072a2.552,2.552,0,0,1,2.552,2.552V42.819h0a2.552,2.552,0,0,1-2.552,2.552H16.552A2.552,2.552,0,0,1,14,42.819V21.552h0A2.552,2.552,0,0,1,16.552,19Z" transform="translate(-14 -19)"/>
      </g>
    </g>
    <g id="Group_764" data-name="Group 764" transform="translate(622.732 159.744)">
      <g id="Group_18" data-name="Group 18" clip-path="url(#clip-path)">
        <path id="Path_4" data-name="Path 4" d="M6.3,12.58q-2.577,0-5.154,0A1.077,1.077,0,0,1,0,11.456q0-1.2,0-2.405Q0,5.1,0,1.148A1.125,1.125,0,0,1,.25.383,1.1,1.1,0,0,1,1.143,0Q4.865,0,8.588,0c.631,0,.524-.038.964.4.927.925,1.849,1.855,2.781,2.775a.8.8,0,0,1,.244.593q.007,3.86,0,7.72a1.055,1.055,0,0,1-1.127,1.09q-2.222,0-4.444,0H6.3M2.622,11.531v-.144c0-1.16,0-2.321,0-3.481A1.043,1.043,0,0,1,3.71,6.817q2.582,0,5.165,0a1.312,1.312,0,0,1,.316.039,1.067,1.067,0,0,1,.771,1.064c-.01,1.157,0,2.313,0,3.47v.137h1.572a.416.416,0,0,0,.005-.042q0-3.745,0-7.489a.185.185,0,0,0-.052-.116q-1.245-1.25-2.493-2.5c-.02-.02-.044-.035-.082-.066v.144q0,1.323,0,2.645a1.443,1.443,0,0,1-.021.3,1.056,1.056,0,0,1-1.071.851q-1.523,0-3.046,0a1.31,1.31,0,0,1-.283-.032,1.07,1.07,0,0,1-.815-1.077c.01-.981,0-1.962,0-2.943V1.069H1.068V11.531Zm1.062-.02H8.9V7.875H3.684ZM7.864,1.07H4.736v3.12H7.864Z" transform="translate(0 0)" fill="#fff"/>
      </g>
    </g>
  </g>
</svg>
