<svg xmlns="http://www.w3.org/2000/svg" xmlns:xlink="http://www.w3.org/1999/xlink" width="30.005" height="30" viewBox="0 0 30.005 30">
  <defs>
    <clipPath id="clip-path">
      <rect id="Rectangle_48" data-name="Rectangle 48" width="30.005" height="30" fill="none"/>
    </clipPath>
  </defs>
  <g id="Group_766" data-name="Group 766" transform="translate(0 0)">
    <g id="Group_24" data-name="Group 24" transform="translate(0 0)" clip-path="url(#clip-path)">
      <path id="Path_9" data-name="Path 9" d="M0,15.987V13.993c.046-.367.085-.734.139-1.1A14.3,14.3,0,0,1,2.891,6.14,14.738,14.738,0,0,1,17.1.128a13.532,13.532,0,0,1,6.732,2.721,14.73,14.73,0,0,1,6.042,14.224,13.88,13.88,0,0,1-2.783,6.832,14.81,14.81,0,0,1-9.814,5.924c-.422.067-.847.115-1.27.172H14.017c-.366-.046-.733-.085-1.1-.139a14.7,14.7,0,0,1-6.8-2.779A14.8,14.8,0,0,1,.172,17.257C.1,16.835.057,16.41,0,15.987M27.682,15A12.668,12.668,0,1,0,14.99,27.655,12.7,12.7,0,0,0,27.682,15" transform="translate(0 0)" fill="#1a1818"/>
      <path id="Path_10" data-name="Path 10" d="M15.624,20.515a2.037,2.037,0,0,1,.208-.3q3.322-3.33,6.65-6.656a1.221,1.221,0,0,1,1.292-.4,1.16,1.16,0,0,1,.6,1.82,2.585,2.585,0,0,1-.255.283l-7.565,7.565a1.211,1.211,0,0,1-1.955.011q-1.773-1.771-3.544-3.545a1.174,1.174,0,0,1,1.461-1.836,2.824,2.824,0,0,1,.3.273q1.256,1.253,2.508,2.508c.075.075.152.145.3.284" transform="translate(-2.613 -3.217)" fill="#1a1818"/>
    </g>
  </g>
</svg>
